<svg width="88" height="92" viewBox="0 0 88 92" fill="none" xmlns="http://www.w3.org/2000/svg">
<path d="M64.34 15.8C64.34 14.49 64.34 13.18 64.37 11.87C64.38 11.38 64.23 11.01 63.83 10.72C62.41 9.67 61.26 8.33999 60.1 7.01999C59.74 6.60999 59.52 6.15999 59.71 5.57999C60.01 4.65999 60.89 4.33001 61.64 4.92001C62.17 5.33001 62.65 5.81001 63.03 6.38001C63.34 6.85001 63.74 7.21999 64.25 7.60999C64.44 7.28999 64.37 6.98999 64.37 6.70999C64.37 5.09999 64.35 3.49001 64.38 1.88001C64.4 0.760006 65.02 0.219989 66.09 0.299989C66.81 0.349989 67.11 0.619988 67.37 1.32999C67.52 1.72999 67.5 2.13999 67.51 2.54999C67.51 4.19999 67.51 5.84 67.51 7.59C68.16 7.33 68.52 6.87002 68.84 6.39002C69.2 5.86002 69.66 5.42 70.14 5C70.67 4.53 71.4 4.57001 71.86 5.01001C72.35 5.50001 72.36 6.24999 71.89 6.82999C70.71 8.27999 69.47 9.67001 67.95 10.79C67.58 11.07 67.51 11.44 67.51 11.88C67.52 13.12 67.51 14.35 67.51 15.59C66.82 15.4 67.07 14.81 66.99 14.37C66.99 13.92 66.99 13.48 67 13.03C67.01 12.42 66.8 12.01 66.12 12C65.48 11.98 65.04 12.25 64.92 12.91C64.85 13.32 64.89 13.73 64.89 14.14C64.89 14.26 64.89 14.37 64.89 14.48C64.89 14.66 64.89 14.84 64.88 15.02C64.79 15.34 64.93 15.83 64.34 15.8Z" fill="#CCE8F2"/>
<path d="M56.2699 17.84C56.3499 17.91 56.4199 17.98 56.4999 18.05C56.5999 18.52 56.2499 18.74 55.9399 18.64C54.9499 18.3 54.4899 18.8 54.1499 19.61C54.0899 19.74 53.9399 19.81 53.7899 19.86C53.2999 19.59 52.8199 19.61 52.2799 19.81C50.7099 20.39 49.0899 20.85 47.4299 21.13C46.9799 21.21 46.5399 21.33 46.1299 21.06C45.7099 20.78 45.3899 20.42 45.4599 19.85C45.5399 19.24 45.8399 18.77 46.4399 18.61C47.0099 18.46 47.6099 18.37 48.1899 18.3C48.7499 18.23 49.2799 18.07 49.8499 17.76C49.1299 17.14 48.3199 16.76 47.5599 16.31C46.6599 15.78 45.7299 15.3 44.8599 14.72C43.8399 14.05 43.8999 12.81 44.9199 12.14C45.4699 11.78 45.9899 11.9 46.4999 12.18C47.8399 12.93 49.1699 13.68 50.4899 14.45C50.7799 14.62 51.0399 14.83 51.4099 14.83C51.6799 14.24 51.3299 13.78 51.1599 13.31C50.9399 12.71 50.6899 12.13 50.5799 11.5C50.4399 10.71 50.7299 10.17 51.4399 9.95C52.2099 9.71 52.7399 9.94998 53.0299 10.75C53.5999 12.33 54.1799 13.92 54.3899 15.59C54.5099 16.58 54.9199 17.18 55.8099 17.51C55.9699 17.57 56.1099 17.72 56.2499 17.83L56.2699 17.84Z" fill="#CFEAF3"/>
<path d="M64.3299 39.21C64.3499 37.9 64.3399 36.6 64.3899 35.29C64.4099 34.72 64.1899 34.49 63.6399 34.42C62.5499 34.29 61.6099 33.76 60.6799 33.21C60.3599 33.02 60.0399 32.83 59.8499 32.49C59.7499 31.93 60.1899 31.89 60.5299 31.88C61.0299 31.86 61.5499 31.73 62.0399 31.95C62.0999 31.95 62.0799 32.19 62.2199 32.01C62.3899 31.76 62.3799 31.41 62.6799 31.24C62.9799 31.19 63.1799 31.32 63.3099 31.58C63.3799 31.72 63.2599 32.03 63.5599 31.95C63.8699 31.86 64.2199 31.74 64.2799 31.33C64.3299 31 64.3199 30.66 64.3199 30.32C64.3099 29.7 64.3499 29.16 64.9999 28.8C65.3699 28.59 65.6899 28.15 64.8699 28.04C64.4599 27.98 64.2699 27.73 64.2799 27.36C64.2799 26.93 64.6399 26.97 64.9399 26.93C65.2299 26.89 65.5399 26.77 65.2599 26.45C64.6099 25.69 65.1599 25.14 65.5399 24.57C65.7199 24.29 65.8399 24.18 65.5199 23.86C64.7199 23.07 64.7899 22.81 65.7699 22.17C66.2099 21.89 66.6199 21.54 67.2099 21.75C67.4099 21.84 67.5299 22.1 67.8099 22.03C68.2599 21.89 68.5799 21.38 69.1399 21.59C69.4499 21.83 69.5899 22.23 69.3599 22.47C68.6499 23.2 68.6999 24.29 68.1599 25.02C67.6999 25.65 67.9399 26.1 68.1099 26.59C68.2799 27.06 68.2299 27.29 67.7699 27.42C67.7099 27.43 67.6599 27.41 67.6299 27.35C67.5999 27.41 67.6299 27.44 67.7099 27.47C68.2099 27.62 69.0999 27.38 68.6399 28.44C67.7099 28.46 67.7499 29.12 67.8099 29.75C67.8699 30.27 67.4999 31.03 68.0999 31.27C68.6999 31.5 69.2699 30.97 69.7799 30.59C70.3499 30.16 70.3399 29.8 69.6899 29.44C69.2799 29.21 68.7899 29.05 68.5999 28.55C69.1499 27.87 69.6599 26.98 70.6399 28.07C71.3799 27.72 71.7999 28.23 72.2499 28.65C72.3899 28.77 72.6099 28.94 72.4699 29.1C72.1299 29.48 72.2699 29.67 72.5599 30.04C73.0799 30.71 72.5599 31.07 71.9399 31.19C71.3799 31.3 71.0499 31.42 71.0999 32.14C71.1699 33.01 70.0599 33.14 69.8099 33.86C69.3699 34.36 68.7199 34.32 68.1499 34.45C67.6299 34.58 67.4899 34.81 67.4999 35.3C67.5299 36.61 67.5199 37.92 67.5299 39.23C67.0999 39.29 67.1099 38.94 67.0299 38.69C66.8999 37.64 67.2199 36.57 66.8299 35.53C66.8299 36.04 67.2699 36.58 66.7899 37.05C66.3599 37.47 65.7699 37.4 65.1999 37.51C65.4999 37.74 65.8399 37.82 66.0599 38.09C66.1299 38.17 66.1899 38.26 66.2299 38.36C66.2399 38.53 66.1799 38.67 66.0699 38.8C65.9899 38.87 65.8999 38.92 65.7999 38.95C65.2699 38.86 64.8199 39.16 64.3199 39.23L64.3299 39.21Z" fill="#9ED4E9"/>
<path d="M56.0399 29.1C56.1099 29.08 56.1699 29.08 56.2399 29.07C56.3299 29 56.4299 28.99 56.5299 29.05C56.7099 29.8 56.0599 30.24 55.8599 30.85C55.6099 31.64 54.9099 32.26 54.9399 33.16C54.7199 33.51 54.5099 33.86 54.4699 34.28C54.2899 36.08 53.6399 37.75 53.0699 39.44C52.7999 40.23 52.1099 40.57 51.4099 40.34C50.6899 40.1 50.4399 39.54 50.6099 38.65C50.7299 38.06 50.9699 37.52 51.1699 36.96C51.3299 36.5 51.6899 36.03 51.3699 35.39C49.9899 36.15 48.6299 36.9 47.2699 37.64C46.8899 37.77 46.5299 37.99 46.1299 38.05C45.5099 38.15 45.1899 37.73 45.1599 37.23C45.1199 36.73 45.4599 36.32 45.9999 36.58C46.5599 36.85 46.3499 36.35 46.3599 36.24C46.4899 35.5 46.7299 34.82 47.2499 34.26C48.0999 33.67 48.9699 33.1 49.9299 32.68C50.4299 32.19 51.0099 31.78 51.2799 31.07C51.4799 30.54 51.9799 30.61 52.4299 30.64C52.4999 30.64 52.5799 30.65 52.6499 30.67C52.9299 30.85 52.9999 31.04 52.6899 31.26C52.4299 31.44 52.0499 31.48 51.9999 32.01C52.4999 31.78 52.9499 31.55 53.4399 31.43C53.7799 31.35 54.1699 31.28 54.0299 30.69C53.9699 30.42 54.4299 30.21 54.6699 29.99C54.7999 29.87 55.0099 29.92 55.1199 29.76C55.2099 29.71 55.2799 29.63 55.3599 29.55C55.4299 29.48 55.5099 29.42 55.5799 29.35C55.6499 29.33 55.7199 29.32 55.7999 29.32C55.8799 29.25 55.9599 29.18 56.0299 29.11L56.0399 29.1Z" fill="#B5DEED"/>
<path d="M62.1198 32.2399C61.1498 31.9399 60.4098 32.0199 59.8498 32.4899C59.7098 32.3799 59.5498 32.27 59.4198 32.14C58.8132 31.5333 58.1398 31.4166 57.3998 31.79C57.2898 31.85 57.1698 31.8499 57.1098 31.7499C56.7698 31.1899 56.9798 30.78 57.2098 30.16C57.4498 29.52 57.3798 29.22 58.2098 29.13C58.6098 29.09 59.4598 28.94 59.6498 28.16C59.7398 27.8 60.1698 27.79 60.4398 27.6C61.0598 27.17 61.8998 26.89 61.8098 25.89C61.8098 25.79 61.8398 25.6999 61.8998 25.6199C61.9998 25.5199 62.1098 25.44 62.2198 25.35C62.3898 25.2 62.5198 25.0299 62.5598 24.7999C62.6298 23.9599 62.8498 23.2 63.6298 22.73C63.7698 22.75 63.9699 22.8499 63.8899 22.5499C63.9599 22.4199 64.0598 22.3099 64.1698 22.2099C64.3798 21.8399 64.4299 21.4599 64.3899 21.0299C64.2699 19.8799 65.5598 18.8 66.6798 19.07C67.0598 19.16 67.4198 19.3399 67.4798 19.7499C67.5798 20.4699 67.7798 21.22 67.2798 21.89C66.4198 21.73 65.9498 22.4399 65.3198 22.7799C64.9698 22.9699 65.2598 23.56 65.7898 23.79C66.4298 24.06 66.4698 24.14 65.9698 24.45C65.4098 24.79 65.5098 25.4199 65.1898 25.8399C65.1198 25.9299 65.1598 26.0999 65.2798 26.1099C65.9698 26.1699 65.7898 26.6399 65.6598 26.9899C65.4598 27.4999 65.0498 27.23 64.7098 27.16C64.6498 27.15 64.5698 27.19 64.4298 27.22C64.5498 27.47 64.3498 28.0099 64.9598 27.7099C65.2998 27.5399 65.4098 27.67 65.5898 27.91C65.7598 28.15 65.8598 28.33 65.5898 28.57C65.4898 28.66 65.4898 28.93 65.3998 28.95C64.3498 29.25 64.5598 30.09 64.6198 30.82C64.6798 31.54 64.4898 31.9899 63.7598 32.2399C63.4698 32.3399 63.2298 32.57 62.9998 32.26C62.7798 31.97 63.2098 31.8299 63.2598 31.5899C63.4798 31.3099 64.0698 31.4999 64.0898 30.9599C64.1098 30.2099 64.1798 29.46 64.0498 28.72C64.0198 28.55 63.8198 28.52 63.6798 28.6C63.0598 28.94 62.3998 29.23 61.8298 29.66C61.4998 29.92 61.6298 30.1499 61.8798 30.3999C62.1598 30.6699 62.6298 30.8 62.5898 31.32C62.8598 31.83 62.4899 32.0299 62.1399 32.2399H62.1198Z" fill="#A4D7EA"/>
<path d="M67.29 21.89C67.29 21.26 67.27 20.62 67.29 19.99C67.3 19.54 67 19.44 66.68 19.33C66.38 19.22 66.1 19.12 65.95 19.53C65.88 19.73 65.75 19.76 65.53 19.78C64.6 19.86 64.42 20.17 64.68 21.07C64.84 21.62 64.64 22.19 64.14 22.57C64.07 22.48 64.03 22.38 64.02 22.27C64.09 21.45 64.05 20.63 64.07 19.81C64.09 19.14 63.82 18.84 63.15 18.92C62.65 18.8 62.11 18.85 61.64 18.6C61.3 18.42 61.04 18.14 61.07 17.72C61.11 17.29 61.42 17.15 61.79 17.28C62.14 17.4 61.98 17.12 62.05 17.02C62.27 16.69 62.62 16.37 62.95 16.49C63.68 16.76 63.78 16.11 64.14 15.83C64.21 15.83 64.28 15.81 64.34 15.81C64.71 15.6 64.55 15.23 64.59 14.92C64.77 14.77 64.72 14.62 64.59 14.47C64.59 14.4 64.59 14.32 64.59 14.25C65.11 13.73 65.87 13.74 66.48 13.43C66.67 13.33 66.96 13.38 67.06 13.62C67.14 13.82 66.96 13.94 66.79 14.04C66.96 14.11 67.16 14.09 67.28 14.25C67.35 14.7 67.11 15.2 67.49 15.6C67.57 15.68 67.65 15.75 67.73 15.83C67.96 16.04 68.05 16.3099 68.1 16.6099C68.27 17.5899 69.2 17.98 70.02 17.39C70.37 17.14 70.68 16.92 71.11 17.17C71.18 17.26 71.27 17.33 71.37 17.38C71.68 17.39 71.9 17.55 72.04 17.83C71.28 18.53 70.36 18.94 69.42 19.31C68.3467 19.0433 67.81 19.4666 67.81 20.58C67.81 21.17 67.85 21.7699 67.74 22.3599C67.13 22.6599 67.36 22.13 67.28 21.9L67.29 21.89Z" fill="#B4DEED"/>
<path d="M64.1399 15.8201C63.8599 16.1801 64.0798 16.4901 64.4098 16.8701C63.5598 16.9001 62.8298 16.4701 62.2398 17.0701C62.0898 17.2201 62.3998 17.37 62.3398 17.55C62.1898 17.64 62.0498 17.5701 61.9098 17.5201C61.6998 17.4301 61.4598 17.3301 61.3098 17.5701C61.1398 17.8401 61.3298 18.0501 61.5098 18.2501C61.6998 18.4501 61.9398 18.5201 62.2098 18.5301C62.4998 18.5301 62.8198 18.4701 63.0098 18.7801C62.9498 19.3801 62.3698 19.4601 62.0198 19.7401C61.5398 20.1301 61.3398 20.4201 61.9998 20.8101C62.2498 20.9501 62.5198 21.1601 62.2998 21.5301C61.6298 21.7601 61.2898 22.4601 60.7198 22.7101C60.7398 22.7101 60.8398 22.7101 60.9398 22.6901C61.3098 22.5601 61.7299 22.4801 61.9199 22.9001C62.0999 23.3001 61.6499 23.4501 61.4199 23.6701C61.2799 23.8001 61.1398 23.9201 60.9798 24.0101C60.9098 24.0401 60.8398 24.0701 60.7698 24.0601C59.3498 23.8501 59.1598 24.05 59.2698 25.55C59.2998 25.99 59.4898 26.42 59.2998 26.86C58.5598 27.34 57.9199 28.0501 56.9199 27.9701C56.1999 26.6001 56.0398 25.1701 56.4798 23.6801C57.2498 23.5401 57.8998 23.1901 58.4698 22.6301C58.8798 22.2101 59.4398 22.0001 60.0498 21.9301C59.7198 21.5601 59.3498 21.78 58.9998 21.8C58.8998 21.8 58.7998 21.7601 58.7098 21.7101C58.5098 21.4101 58.6098 21.1201 58.7698 20.8701C59.0798 20.4001 58.9998 19.9501 58.8198 19.4801C58.8198 19.3801 58.8198 19.2801 58.8598 19.1801C59.2898 18.8001 59.7698 18.4501 59.8498 17.8101C61.0298 16.6201 62.4598 15.9401 64.1298 15.8101L64.1399 15.8201Z" fill="#B7DFEE"/>
<path d="M83.9299 29.33C84.0799 29.32 84.2299 29.3 84.3699 29.29C84.6499 29.31 85.1599 29.29 84.8299 29.7C84.5099 30.1 84.3199 30.47 84.2299 30.95C84.1799 31.21 83.9999 31.47 83.6899 31.42C83.2499 31.34 83.3999 30.99 83.4299 30.7C83.3799 30.61 83.5199 30.56 83.4899 30.47C83.3699 30.51 83.4599 30.62 83.4099 30.68C83.1799 31.11 83.4199 31.66 83.0499 32.05C82.7299 32.37 82.1199 32.13 81.9199 32.66C81.9899 32.77 82.0699 32.85 82.1899 32.9C82.2499 32.9 82.3099 32.91 82.3599 32.94C82.3599 33.89 81.7399 34.62 80.5299 34.83C79.8699 34.94 79.0899 34.89 78.7599 34.09C78.6499 33.82 78.3699 33.76 78.2699 33.53C78.2699 33.41 78.3199 33.32 78.4399 33.28C78.2799 33.23 78.3399 33.42 78.2399 33.46C77.8899 33.74 78.0799 34.43 77.4399 34.48C77.4299 34.34 77.4099 34.2 77.3999 34.06C77.2099 33.87 77.4099 33.54 77.1599 33.37C76.7899 33.16 76.3599 33.04 76.0599 32.71C75.6299 31.94 76.2299 31.36 76.5399 30.83C76.8199 30.36 77.4399 30.07 78.0799 30.45C78.5699 30.73 79.0399 30.71 79.5799 30.51C80.6899 30.09 81.7899 29.57 83.0099 29.54C83.2899 29.33 83.6599 29.56 83.9299 29.34V29.33Z" fill="#86C0E0"/>
<path d="M83.9301 16.47C83.3401 17.04 82.4301 17.12 81.9401 17.83C81.9101 17.85 81.8601 17.89 81.8401 17.88C80.9301 17.52 79.9801 17.33 79.0301 17.14C79.0301 17.21 78.8801 16.88 78.9401 17.18C79.0801 17.79 78.4601 18.03 78.2301 18.54C78.7701 18.69 79.0901 19.08 79.2101 19.62C78.7901 19.59 78.4301 19.7 78.0701 19.94C77.6801 20.2 77.2701 20.47 76.7901 20.57C76.2901 20.72 75.7901 20.42 76.2001 20.07C76.8801 19.48 76.1801 19.18 76.1801 18.75C76.2101 18.25 76.3901 17.85 76.7901 17.5C77.5101 16.89 78.1201 16.21 78.3301 15.21C78.4701 14.56 79.7401 14.45 80.5601 14.95C81.8101 14.24 82.9801 13.39 84.3401 12.86C84.7001 12.78 85.0901 12.36 85.4301 12.83C85.8001 13.33 85.2401 13.5 85.0301 13.81C84.4701 14.61 83.7401 15.36 83.9301 16.47Z" fill="#8CC1E1"/>
<path d="M74.9699 21.67C74.9599 21.82 74.9399 21.97 74.9299 22.12C74.2099 22.64 75.1499 23.21 74.8799 23.75C74.6299 24.89 74.2899 25.98 73.2299 26.67C73.0499 26.79 72.8999 26.97 72.6499 26.86C72.3999 26.46 72.5399 26.1 72.7899 25.76C72.8999 25.66 73.0299 25.61 73.1799 25.63C73.0499 25.59 72.8999 25.57 72.8099 25.45C72.5199 24.78 72.6399 23.98 72.1599 23.37C71.3799 22.98 72.0199 22.06 71.4599 21.52C71.2399 21.31 71.2899 21.08 70.9499 21.38C70.5599 21.72 70.0899 21.8 69.5999 21.55C69.3299 21.14 69.6699 20.94 69.9199 20.8C70.3499 20.56 70.3599 20.19 70.3499 19.8C71.1199 19.39 71.6499 18.63 72.4799 18.31C72.6699 18.47 72.8699 18.63 73.0599 18.8C73.3199 19.03 73.5599 19.01 73.8499 18.84C74.2799 18.58 74.7299 18.35 75.1799 18.11C75.4899 18.56 75.0599 19.29 75.7999 19.62C75.9999 19.71 75.7599 20.06 75.5399 20.1C74.6799 20.23 75.1099 21.18 74.5999 21.53C74.6999 21.65 74.8799 21.61 74.9799 21.71L74.9699 21.67Z" fill="#9ED4E9"/>
<path d="M68.15 43.05L67.56 42.6C67.21 44.18 67.5 45.79 67.4 47.38C66.9 48.34 65.71 48.37 65.01 47.44C64.92 47.4 64.83 47.35 64.75 47.29C64.36 46.97 64.55 46.55 64.52 46.15C64.44 45.07 64.56 43.99 64.48 42.91C64.43 42.18 64.76 41.91 65.43 41.97C65.17 41.7 64.76 42.13 64.46 41.88C64.38 41.81 64.32 41.73 64.28 41.63C64.53 40.47 64.59 40.43 65.66 40.84C65.95 40.95 66.05 40.7 66.24 40.64C66.67 40.47 67.13 40.64 67.57 40.48C67.97 40.34 68.44 40.27 68.62 40.77C68.78 41.2 68.37 41.42 68.08 41.65C67.96 41.74 67.81 41.78 67.7 41.88C67.56 41.84 67.7 42.07 67.68 41.92C67.66 41.85 67.69 41.85 67.78 41.87C68.24 41.96 68.5 42.27 68.62 42.68C68.75 43.11 68.56 43.25 68.15 43.05Z" fill="#97CAE5"/>
<path d="M79.2099 19.62C78.8499 19.11 78.2199 18.93 77.6599 18.42C78.2899 18.31 78.3199 17.72 78.7299 17.46C78.7599 17.44 78.6299 17.15 78.5599 16.95C79.2799 17.15 80.0599 17.36 80.6299 16.74C81.0699 16.91 80.4299 17.57 81.1499 17.45C81.4899 17.4 81.6399 17.77 81.9299 17.84C82.7599 18.31 83.7499 18.15 84.5999 18.53C85.2499 19.07 85.1999 19.81 85.1099 20.53C85.0599 20.9 84.8299 21.23 84.3299 21.02C82.5299 20.88 80.8199 20.39 79.1899 19.63L79.2099 19.62Z" fill="#84BCDE"/>
<path d="M56.9201 27.97C57.7001 27.64 58.3301 27.03 59.1701 26.84C59.2401 26.85 59.3101 26.86 59.3801 26.88C59.4901 26.85 59.59 26.78 59.68 26.71C60.42 26.4 60.9601 25.61 61.8901 25.74C62.3601 26.11 62.2601 26.64 61.8901 26.86C61.3001 27.22 60.9701 28 60.1401 27.99C59.9901 27.99 59.76 28.11 59.8 28.22C60.14 29.13 59.12 29.13 58.93 29.12C58.27 29.09 58.5501 29.55 58.4401 29.79C57.9701 29.89 58.2001 29.31 57.8801 29.25C57.6301 29.44 57.4501 29.69 57.3101 29.94C57.4901 30.26 57.79 29.92 57.96 30.18C57.83 30.67 57.3601 30.55 56.9501 30.68C57.2101 31.02 57.0301 31.5 57.3901 31.79C56.6101 32.32 55.8601 32.88 54.9401 33.15C54.5801 32.36 54.6201 32.14 55.2201 31.78C55.2801 31.74 55.3501 31.72 55.4201 31.69C54.7501 31.11 55.64 30.9 55.74 30.51C55.87 30 56.23 29.55 56.49 29.08C56.43 29.03 56.41 28.98 56.43 28.94C56.45 28.89 56.47 28.87 56.49 28.87C56.87 28.68 56.9601 28.36 56.9201 27.97Z" fill="#ACDBEC"/>
<path d="M78.3099 33.3599C78.4499 33.5799 78.6799 33.5799 78.8999 33.5899C79.0799 33.5899 79.3299 33.5899 79.3099 33.8299C79.2999 33.9599 79.08 34.0599 78.95 34.1799C79.24 34.4999 79.6799 34.3799 79.9799 34.5599C80.5399 34.8899 80.5999 34.4099 80.8599 34.1499C81.0799 33.9299 81.5699 34.3899 81.7899 33.8599C81.9299 33.5299 82.3499 33.3599 82.3499 32.9299C82.4999 32.9999 82.6499 33.0799 82.8099 33.1499C82.8899 33.2199 82.9599 33.2799 83.0399 33.3499C83.1499 33.4899 83.3699 33.4499 83.4899 33.5799C83.5599 33.6699 83.6499 33.7399 83.7599 33.7899C83.8199 33.7899 83.8799 33.7999 83.9299 33.8299C83.6499 34.2699 82.0999 35.9799 81.8999 36.0699C81.5799 36.0599 81.3799 35.8199 81.1199 35.6799C80.3999 35.2999 80.3899 35.3099 80.3599 36.2499C80.4499 36.7099 80.0999 36.6899 79.8999 36.5499C79.4899 36.2499 79.2599 36.4499 79.0999 36.7799C78.7899 37.4399 79.4199 37 79.5699 37.14C79.7699 37.33 79.93 37.5299 79.95 37.7999C79.98 38.1599 79.6699 38.1999 79.4299 38.2799C79.1199 38.3799 78.8099 38.5899 78.4799 38.3299C77.7699 37.1399 77.6299 35.7999 77.4299 34.4699C77.6399 34.3099 77.7699 34.0799 77.7199 33.8299C77.6099 33.2699 77.9999 33.3899 78.2999 33.3599H78.3099Z" fill="#8CC4E2"/>
<path d="M52.4499 30.6501C51.8199 30.8501 51.3499 31.1201 51.1699 31.8701C51.0499 32.3601 50.4799 32.5801 49.9499 32.6801C49.5599 32.2001 48.9799 32.11 48.4399 32.05C47.6499 31.96 46.9099 31.74 46.1499 31.55C45.8999 30.65 46.5799 29.52 47.4999 29.3C49.2399 29.39 50.8699 29.9401 52.4399 30.6501H52.4499Z" fill="#BAE0EF"/>
<path d="M68.1499 43.05C68.3099 43.01 68.5699 43.03 68.4399 42.75C68.2399 42.34 67.8899 42.07 67.4999 41.88C67.4699 41.65 67.6499 41.63 67.7599 41.57C68.0799 41.39 68.5299 41.11 68.4199 40.81C68.2399 40.33 67.7999 40.66 67.4799 40.81C67.0399 41.01 66.6099 40.68 66.1699 40.79C65.4699 41.04 65.5299 40.53 65.5899 40.15C65.6599 39.68 65.8499 39.23 65.9499 38.76C66.3699 38.51 66.8299 38.52 67.2899 38.54C67.2999 38.79 67.2499 39.06 67.5299 39.21C68.8799 40.08 69.9499 41.27 71.0399 42.43C71.1899 42.59 71.3299 42.77 71.3599 43C71.7699 43.7 70.8299 43.6 70.7199 44.09C70.4999 45.01 70.0099 44.25 69.6499 44.09C69.3999 43.98 69.1299 44.04 68.8899 43.93C68.6399 43.64 68.3999 43.35 68.1499 43.06V43.05Z" fill="#90C5E3"/>
<path d="M69.7999 33.8401C69.3499 33.2401 70.0599 33.0001 70.2699 32.8501C70.8699 32.4501 71.1799 32.1601 70.5799 31.5001C70.3699 31.2701 70.5699 30.9401 70.8999 31.0401C71.3099 31.1501 71.63 30.9601 71.97 30.8801C72.64 30.7301 72.73 30.4201 72.25 29.9301C72.13 29.8101 71.93 29.7601 71.73 29.6601C71.92 29.4301 72.1299 29.2301 72.2699 28.9901C72.3199 28.9101 72.12 28.88 72.01 28.86C71.82 28.58 71.9399 28.4201 72.2099 28.3101C72.7599 28.3401 73.3399 28.2501 73.8599 28.4901C74.3599 28.7201 74.41 29.1901 74.34 29.6901C74.93 29.4401 75.34 29.7301 75.69 30.1501C75.86 30.3501 76.05 30.5801 75.84 30.8401C75.64 31.1001 75.38 30.9901 75.14 30.8701C75.09 30.8301 75.04 30.7801 75 30.7301C74.97 30.7601 75.0199 30.7701 75.0199 30.8101C74.9599 31.3001 75.48 31.7101 75.17 32.2201C74.84 32.0601 74.5 31.9101 74.17 31.7201C73.31 31.2301 73.2999 31.2101 72.6099 31.9701C71.9499 32.7001 71.21 33.3001 70.26 33.6001C70.15 33.6401 70.0599 33.71 69.9899 33.8C69.9299 33.82 69.8599 33.83 69.7999 33.83V33.8401Z" fill="#95CBE5"/>
<path d="M80.56 14.9501C80.53 15.1001 80.36 15.3101 80.33 15.2501C79.84 14.2401 79.26 14.9401 78.71 15.1401C78.63 15.1701 78.46 15.1501 78.58 15.3201C78.61 15.3601 78.72 15.3501 78.79 15.3701C78.86 15.3901 78.92 15.4201 79.03 15.4601C78.47 15.9701 77.74 16.3401 77.7 17.2101C77.7 17.3401 77.58 17.3701 77.47 17.4001C76.78 17.5801 76.55 18.1701 76.28 18.7401C75.49 18.1401 76.14 17.7701 76.5 17.3601C77.1 17.0201 77.28 16.4501 77.41 15.8201C77.65 14.6801 77.7 13.4801 78.3 12.4401C79.01 11.8001 79.99 12.0601 80.78 11.6801C80.92 11.6101 81.12 11.7901 81.03 12.0301C81 12.7101 80.64 13.3001 80.48 13.9501C80.4 14.3001 80.16 14.6501 80.55 14.9601L80.56 14.9501Z" fill="#95C9E5"/>
<path d="M53.7998 19.86C53.7598 19.47 54.1398 19.28 54.1998 18.87C54.2698 18.39 55.0398 18.39 55.3998 18.02C55.4798 17.94 55.5498 18.11 55.6098 18.2C56.0098 18.78 56.2598 18.41 56.4998 18.05C57.1298 18.17 57.5998 18.56 58.0698 18.96C58.0898 19.03 58.1298 19.1 58.1798 19.15C58.4598 19.47 58.7198 19.86 58.5098 20.26C58.2598 20.73 57.7898 20.39 57.4598 20.39C57.3498 21.17 58.5098 21.97 57.3298 22.68C57.1398 22.78 56.9598 22.9 56.7298 22.79C56.9798 21.71 56.9698 21.72 55.9998 21.19C55.4798 20.91 54.9798 20.6 54.4698 20.31C54.3998 20.23 54.3098 20.17 54.2398 20.09C54.1698 20.09 54.0898 20.09 54.0198 20.07C53.9398 20 53.8698 19.93 53.7998 19.86Z" fill="#C4E5F1"/>
<path d="M83.9298 16.47C83.9098 16.32 83.9498 16.12 83.8698 16.04C83.2398 15.48 83.6099 15.13 84.0099 14.64C84.2199 14.39 84.9698 14.38 84.5698 13.7C84.4898 13.56 84.9198 13.56 85.0898 13.43C85.2298 13.32 85.4298 13.27 85.3198 13.02C85.2298 12.8 85.0898 12.79 84.8798 12.84C84.7098 12.88 84.5198 12.86 84.3298 12.86C84.6898 12.4 85.2198 12.19 85.7398 12C86.5198 11.72 87.0298 12.02 87.4598 12.96C87.7898 13.67 87.6598 14.33 87.0198 14.69C85.9798 15.28 85.0199 15.99 83.9199 16.46L83.9298 16.47Z" fill="#9BC9E4"/>
<path d="M74.94 30.6599C75.2 30.6199 75.41 30.8899 75.78 30.7199C75.33 30.3399 75.22 29.59 74.37 29.89C74.14 29.97 74.23 29.7199 74.2 29.5999C73.96 28.6799 73.95 28.68 73.06 28.64C72.77 28.63 72.46 28.7 72.24 28.42C72.31 28.34 72.39 28.27 72.49 28.23C72.75 28.05 73.27 28.3599 73.32 27.9299C73.38 27.4199 73.73 27.2299 74.04 26.9599C73.59 26.7799 73.66 26.4599 73.88 26.1599C74.08 25.8899 74.38 25.72 74.72 25.67C75.27 25.6 75.59 25.7799 75.4 26.4099C75.39 26.5499 75.38 26.6999 75.36 26.8399C75.29 26.9199 75.21 26.9999 75.18 27.0999C75.16 27.2399 75.14 27.38 75.13 27.51C74.94 27.86 74.54 28.1799 74.97 28.6199C76.03 29.1799 77.1 29.7299 78.08 30.4299C77.45 30.2699 77.09 30.8399 76.57 30.9999C76.48 31.0299 76.38 31.1599 76.48 31.2699C76.9 31.7299 76.48 31.95 76.19 32.14C75.93 32.31 75.97 32.48 76.05 32.7C75.67 32.69 75.45 32.3799 75.16 32.2199C75.12 31.6999 74.4 31.2699 74.93 30.6599H74.94Z" fill="#8EC6E3"/>
<path d="M65.0399 47.31C65.2499 47.25 65.6399 47.03 65.5099 47.48C65.3399 48.03 65.7699 48.03 65.9099 47.91C66.3599 47.53 66.8299 47.83 67.2799 47.75C67.5399 48.24 67.2399 48.45 66.8399 48.51C66.4199 48.57 66.0899 48.8 65.7299 48.96C65.3033 48.82 64.9999 49.0133 64.8199 49.54C64.3399 49.17 64.3799 48.63 64.3799 48.11C64.3799 46.35 64.3799 44.59 64.3799 42.73C63.7599 42.95 63.4399 43.41 63.1099 43.82C62.8699 44.11 62.6799 44.43 62.3399 44.62C62.2699 44.7 62.1899 44.77 62.1199 44.84C62.0399 44.92 61.9599 44.99 61.8999 45.08C61.5199 45.28 60.9399 45.47 60.8299 45.03C60.7299 44.63 60.3899 43.89 61.1899 43.6C61.4199 43.52 61.5599 43.34 61.6399 43.12C62.1099 41.82 63.0299 41.38 64.3499 41.69C64.8999 41.82 65.5199 41.53 66.0299 41.95C65.9799 42 65.9399 42.09 65.8899 42.09C64.5399 42.25 64.5599 42.25 64.6199 43.57C64.6599 44.49 64.6699 45.42 64.5899 46.34C64.5499 46.79 64.7699 47.03 65.0199 47.3L65.0399 47.31Z" fill="#99CDE6"/>
<path d="M64.37 41.69C64 41.85 63.6901 42.37 63.2001 41.79C63.1001 41.67 62.55 41.94 62.43 42.27C62.3 42.63 61.9301 42.92 61.9101 43.21C61.8601 43.91 61.5 44 60.83 43.89C61.19 44.27 61.7001 44.59 60.9801 45.08C61.2901 45.08 61.6001 45.08 61.9101 45.08C61.2101 45.73 60.63 45.81 60.08 45.33C59.58 44.89 59.4701 44.14 59.9501 43.52C61.0901 42.05 62.32 40.65 63.9 39.63C64.28 40.07 64.91 40.56 63.9 40.52C64.73 40.42 64.2101 41.27 64.3501 41.7L64.37 41.69Z" fill="#A1D4E9"/>
<path d="M85.3099 34.6899C86.0099 34.8499 86.5899 35.2599 87.1599 35.6599C87.8399 36.1499 87.8699 36.6199 87.3899 37.4999C86.9399 38.3299 86.4699 38.5699 85.6999 38.2599C85.1599 38.0499 84.5999 37.8199 84.1699 37.3999C84.2299 36.3599 83.9799 35.1899 85.3099 34.6799V34.6899Z" fill="#9FD5E9"/>
<path d="M78.5 38.33C78.96 38.33 79.3 37.91 79.75 37.96C79.89 37.69 79.58 37.65 79.56 37.48C79.54 37.32 79.5 37.18 79.3 37.33C79.17 37.43 79.25 37.93 78.91 37.59C78.69 37.38 78.43 37.04 78.73 36.7C79 36.4 79.33 36.16 79.63 35.91C79.87 36.09 79.82 36.83 80.37 36.25C80.8 37.03 81.02 37.89 81.26 38.74C81.48 39.53 81.16 40.11 80.48 40.34C79.7 40.6 79.12 40.32 78.82 39.51C78.68 39.13 78.61 38.73 78.51 38.33H78.5Z" fill="#92C7E3"/>
<path d="M57.1699 22.5599C57.5599 22.2599 57.9099 22.02 57.3899 21.45C57.1299 21.17 57.5899 20.4499 56.7799 20.3399C57.2399 19.8299 57.5699 20.1099 57.9299 20.2599C58.2199 20.3799 58.3399 20.2599 58.3499 19.8699C58.3499 19.4899 57.6099 19.3899 58.0799 18.9399C58.3499 19.1599 58.7599 19.0799 58.9799 19.3999C59.4399 19.8999 59.5299 20.3899 59.0199 20.9399C58.8499 21.1199 58.7599 21.3799 58.7599 21.6499C58.4599 21.7799 58.2499 21.61 58.0499 21.45C58.0599 21.46 58.0699 21.4899 58.0799 21.4999C58.3799 21.6499 58.6299 21.9899 58.9899 21.6499C59.8799 21.0999 59.8899 21.0999 60.6599 22.3099C59.6099 21.9799 58.9099 22.4899 58.2799 23.1499C57.7799 23.6699 57.2499 24.01 56.5099 23.67C56.5099 23.42 56.4899 23.1599 56.7399 22.9999C56.9599 22.9199 57.1299 22.7899 57.1899 22.5499L57.1699 22.5599Z" fill="#BDE2EF"/>
<path d="M85.3099 34.6901C85.1799 34.8601 85.0399 35.0401 84.9099 35.2001C84.5199 35.6701 84.2299 36.1501 84.5199 36.7901C84.6699 37.1301 84.5599 37.3601 84.1699 37.4001C83.3799 37.0201 82.6099 36.6001 81.8999 36.0601C82.4499 35.8701 82.4999 35.2801 82.6399 34.8901C82.8399 34.3301 82.9499 33.96 83.6299 34.11C83.7599 34.14 83.8599 33.9601 83.9199 33.8201C84.3199 34.0001 84.7399 34.1501 85.0499 34.4801C85.1399 34.5401 85.1899 34.6401 85.2899 34.6901H85.3099Z" fill="#99CDE6"/>
<path d="M75.4 26.41C75.35 26.05 75.28 25.7401 74.77 25.8901C74.36 26.0101 74 26.15 73.89 26.59C73.96 26.74 74.06 26.77 74.17 26.75C74.4 26.71 74.72 26.46 74.81 26.86C74.88 27.18 74.54 27.2301 74.28 27.2901C73.57 27.4601 73.47 27.7001 73.94 28.4201H72.46C72.03 27.9601 72.09 27.5 72.45 27.03C72.52 26.95 72.6 26.8901 72.7 26.8501C73.22 26.5501 73.24 25.6701 74.05 25.6701C74.1 25.6701 74.2 25.49 74.18 25.41C74.05 24.74 74.51 24.27 74.72 23.71C75.01 23.57 74.58 22.95 75.18 23.03C75.68 24.14 75.8 25.27 75.4 26.44V26.41Z" fill="#95CBE5"/>
<path d="M47.2698 34.26C46.9698 35.24 46.6598 36.23 46.3498 37.22C46.0198 37.12 46.1499 36.48 45.6699 36.7C45.4799 36.79 45.2198 37.02 45.3498 37.21C45.5198 37.48 45.5498 37.94 46.0898 37.87C46.4898 37.81 46.8598 37.56 47.2798 37.64C46.9998 37.96 46.6099 38.1 46.2299 38.25C45.4399 38.57 44.8098 38.29 44.3998 37.51C43.9698 36.68 44.0798 36.13 44.8498 35.59C45.6098 35.06 46.4098 34.6 47.2698 34.25V34.26Z" fill="#C2E4F0"/>
<path d="M76.4999 17.36C76.3799 17.81 75.8899 18.21 76.2799 18.74C76.3199 18.8 76.3399 18.88 76.3899 18.93C76.9299 19.45 76.8732 19.8967 76.2199 20.27C76.3099 20.54 76.5599 20.51 76.7699 20.56C76.2799 21.12 75.5599 21.29 74.9599 21.67C74.6199 21.77 74.2999 22.06 73.8799 21.69C74.0599 21.31 74.5099 21.2 74.7499 20.89C74.3799 20.68 74.1099 20.43 74.6599 20.13C74.9699 19.96 75.3299 19.87 75.6899 19.73C75.4599 19.27 74.8099 19.48 74.5799 18.93C75.0499 18.86 75.2799 18.57 75.1599 18.08C75.5799 17.8 75.9799 17.46 76.4999 17.36Z" fill="#98D1E8"/>
<path d="M68.8899 43.93C69.1799 43.88 69.3499 43.32 69.7399 43.71C69.9599 43.94 70.0699 44.3 70.5099 44.29C70.3499 43.69 70.2799 43.16 71.1899 43.39C71.2199 43.39 71.2999 43.14 71.3599 43.01C71.6599 43.18 71.8899 43.42 72.0699 43.7C72.3799 44.17 72.3099 44.86 71.9299 45.23C71.4999 45.66 70.7899 45.79 70.3199 45.45C69.7499 45.04 69.2699 44.53 68.8899 43.93Z" fill="#99CCE5"/>
<path d="M71.12 17.1601C70.72 17.1401 70.4 17.2501 70.19 17.6401C69.92 18.1501 69.49 18.1301 69.04 17.9201C68.84 17.8301 68.6401 17.6901 68.4201 17.6601C67.8901 17.5801 67.42 17.5501 67.86 16.7901C67.99 16.5701 67.79 16.1501 67.74 15.8201C69.01 15.9101 70.14 16.3301 71.12 17.1601Z" fill="#BBE1EF"/>
<path d="M64.3698 41.69C64.2098 41.61 63.9898 41.53 64.0998 41.3C64.3298 40.81 64.2598 40.62 63.6798 40.77C63.4098 40.84 63.5298 40.62 63.5598 40.51C63.6498 40.22 64.2098 40.45 64.1098 40.21C64.0298 40.02 63.7898 39.9 63.9198 39.62C64.0098 39.43 64.1498 39.29 64.3498 39.21C64.6898 38.36 65.3698 38.72 65.9598 38.76C66.0298 38.96 66.4298 39.02 66.1598 39.38C65.9698 39.63 65.8798 39.97 65.7898 40.28C65.6898 40.6 65.8798 40.75 66.1898 40.78C66.1098 41.01 66.1898 41.48 65.7198 41.18C64.8398 40.64 64.8498 40.63 64.3898 41.68L64.3698 41.69Z" fill="#99CDE6"/>
<path d="M83.48 30.4401C83.7 30.6701 83.43 31.02 83.69 31.27C84 31.06 84.16 30.8301 84.07 30.4401C83.97 30.0301 84.13 29.8801 84.57 29.6901C85.18 29.4201 84.22 29.5401 84.37 29.2801C84.83 28.9901 85.28 28.98 85.73 29.3C86.16 30.49 85.39 31.13 84.6 31.77C84.12 32.07 83.57 32.0001 83.04 32.0401C83.02 31.4601 82.95 30.87 83.48 30.43V30.4401Z" fill="#8FC7E3"/>
<path d="M65.72 48.89C65.98 48.44 66.27 48.13 66.88 48.29C67.21 48.38 67.26 48.03 67.29 47.76C67.29 46.38 67.29 45 67.3 43.62C67.3 43.27 67.15 42.86 67.56 42.6C67.54 44.24 67.53 45.89 67.51 47.53C67.51 47.83 67.53 48.13 67.51 48.43C67.37 49.8 66.66 50.24 65.27 49.81C65.14 49.36 65.5 49.15 65.73 48.89H65.72Z" fill="#A7D2E9"/>
<path d="M84.3499 21.01C84.8999 20.97 85.0499 20.4 84.9499 20.15C84.7399 19.61 84.9498 19.01 84.6098 18.53C84.8698 18.51 85.1198 18.56 85.3698 18.65C86.1398 18.92 86.5399 19.54 86.3799 20.24C86.2299 20.88 85.6299 21.26 84.8499 21.22C84.6599 21.21 84.4899 21.17 84.3499 21.02V21.01Z" fill="#98C9E4"/>
<path d="M54.6899 29.98C54.6999 30.35 53.8599 30.61 54.5399 31.08C54.2799 31.28 54.0399 31.59 53.7399 31.65C53.0499 31.79 52.4099 32.01 51.8899 32.59C51.6099 31.48 51.6099 31.47 52.5599 31.11C52.8399 31 52.7099 30.84 52.6699 30.67C53.0799 30.67 53.4599 30.65 53.7999 30.36C54.0499 30.15 54.3499 30 54.6899 29.97V29.98Z" fill="#BAE0EF"/>
<path d="M81.0398 12.02C80.9498 11.89 80.7998 11.75 80.6798 11.84C79.9598 12.37 79.0998 12.26 78.2998 12.43C78.3898 12.13 78.4698 11.8401 78.5598 11.5401C78.9598 11.3201 79.3998 11.18 79.6998 10.77C80.0098 10.35 80.4798 10.1201 81.0298 10.3901C81.4498 10.9301 81.3998 11.47 81.0298 12.02H81.0398Z" fill="#9FCEE7"/>
<path d="M72.47 18.29C72.4 18.3 72.26 18.31 72.26 18.33C72.16 19.28 71.48 19.52 70.7 19.66C70.61 19.68 70.53 19.79 70.44 19.85C69.9 19.95 69.69 19.6 69.54 19.17C69.99 18.5 70.93 18.54 71.4 17.88C71.48 17.77 71.82 17.83 72.04 17.82C72.24 17.92 72.39 18.06 72.47 18.28V18.29Z" fill="#A5D7EA"/>
<path d="M47.5099 29.2999C47.4099 29.3399 47.2199 29.37 47.2199 29.41C47.2199 30.31 45.8099 30.4899 46.1499 31.5499C45.4499 30.8799 45.2899 30.31 45.6199 29.76C46.0299 29.08 46.5499 28.96 47.4999 29.31L47.5099 29.2999Z" fill="#CDE9F3"/>
<path d="M81.0398 10.4001C80.4098 10.5201 79.8698 10.7101 79.6098 11.3901C79.3898 11.9701 78.9298 11.5401 78.5698 11.5501C78.6398 11.3401 78.6998 11.1301 78.7798 10.9201C79.2398 9.69008 80.0098 9.52006 81.0498 10.4001H81.0398Z" fill="#AAD6EA"/>
<path d="M84.6099 31.7701C85.0299 30.9701 85.7499 30.3 85.7399 29.3C86.2899 29.56 86.4799 30.0101 86.3899 30.5901C86.2899 31.2201 85.8799 31.5601 85.2799 31.6801C85.0599 31.7201 84.8399 31.7401 84.6199 31.7701H84.6099Z" fill="#9AD0E7"/>
<path d="M65.7199 48.89C65.8199 49.32 65.4799 49.54 65.2599 49.81C65.1899 49.81 65.1198 49.79 65.0498 49.76C64.9698 49.7 64.8998 49.63 64.8298 49.56V49.55C64.9098 49.08 64.6099 48.64 64.6299 48.11C65.1299 48.26 65.3099 48.74 65.7199 48.89Z" fill="#97CAE5"/>
<path d="M75.18 23.01C74.88 23.14 75.01 23.56 74.72 23.69C74.72 23.43 74.66 23.22 74.48 22.99C73.99 22.33 74.02 22.3 74.93 22.12C75.1 22.39 75.18 22.69 75.18 23.01Z" fill="#98D1E8"/>
<path d="M59.8599 17.8201C60.0399 18.6001 59.8099 18.9601 58.9699 19.1901C58.8299 19.0401 58.8399 18.8901 58.9699 18.7401C59.1899 18.3701 59.4899 18.06 59.8599 17.83V17.8201Z" fill="#BDE2EF"/>
<path d="M74.9699 28.63C74.7899 28.46 74.6099 28.3 74.3799 28.08C74.6399 27.88 74.8799 27.7 75.1199 27.52C75.1499 27.9 74.8499 28.24 74.9599 28.63H74.9699Z" fill="#95CBE5"/>
<path d="M58.9698 18.73C58.9698 18.88 58.9698 19.03 58.9698 19.18C58.9698 19.25 58.9698 19.33 58.9698 19.4C58.6098 19.36 58.2898 19.25 58.0698 18.94C58.3998 18.99 58.6898 18.88 58.9598 18.72L58.9698 18.73Z" fill="#C4E5F1"/>
<path d="M57.17 22.5601C57.22 22.7201 57.38 22.88 57.21 23.05C57.04 23.22 56.88 23.0501 56.72 23.0101C56.72 22.9401 56.72 22.8601 56.73 22.7901C56.88 22.7201 57.02 22.6401 57.17 22.5701V22.5601Z" fill="#B7DFEE"/>
<path d="M83.93 29.33C83.68 29.65 83.33 29.52 83.01 29.53C83.27 29.25 83.61 29.34 83.93 29.33Z" fill="#8FC7E3"/>
<path d="M77.1599 33.37C77.4699 33.52 77.3999 33.8 77.3999 34.06C77.1699 33.89 77.2099 33.61 77.1599 33.37Z" fill="#8CC4E2"/>
<path d="M83.49 33.59C83.3 33.59 83.13 33.55 83.04 33.36C83.23 33.36 83.39 33.41 83.49 33.59Z" fill="#99CDE6"/>
<path d="M55.14 29.75C55.05 29.95 54.8799 29.98 54.6899 29.98C54.7899 29.8 54.96 29.76 55.14 29.75Z" fill="#BAE0EF"/>
<path d="M64.8198 49.5601C64.8898 49.6301 64.9698 49.7001 65.0398 49.7601C64.9198 49.7401 64.8498 49.6701 64.8198 49.5601Z" fill="#A7D2E9"/>
<path d="M61.8999 45.08C61.9699 45 62.0399 44.92 62.1199 44.84C62.0499 44.92 61.9799 45 61.8999 45.08Z" fill="#A1D4E9"/>
<path d="M83.75 33.8C83.62 33.78 83.53 33.71 83.48 33.59C83.57 33.66 83.66 33.73 83.75 33.8Z" fill="#99CDE6"/>
<path d="M69.99 33.81C70.05 33.69 70.14 33.63 70.26 33.61C70.17 33.68 70.08 33.74 69.99 33.81Z" fill="#9ED4E9"/>
<path d="M82.1899 32.9C82.0499 32.88 81.9599 32.8 81.9199 32.66C82.0099 32.74 82.0999 32.82 82.1899 32.9Z" fill="#8CC4E2"/>
<path d="M56.0401 29.1C55.9601 29.17 55.8801 29.24 55.8101 29.31C55.8901 29.24 55.9701 29.17 56.0401 29.1Z" fill="#BAE0EF"/>
<path d="M56.5 28.87C56.5 28.94 56.5 29.01 56.5 29.08C56.42 29.08 56.33 29.08 56.25 29.07C56.33 29 56.42 28.94 56.5 28.87Z" fill="#BAE0EF"/>
<path d="M75.1799 27.11C75.2399 27.02 75.2999 26.93 75.3599 26.85C75.2999 26.94 75.2399 27.03 75.1799 27.11Z" fill="#95CBE5"/>
<path d="M54.24 20.09C54.32 20.16 54.39 20.23 54.47 20.31C54.39 20.24 54.32 20.17 54.24 20.09Z" fill="#CFEAF3"/>
<path d="M67.2899 14.24C67.0499 14.2 66.7799 14.33 66.5799 14.14C66.4799 13.86 66.9299 13.88 66.8199 13.55C66.0799 13.78 65.4299 14.35 64.5999 14.24C64.5999 13.83 64.5899 13.42 64.5999 13.01C64.6299 12.09 65.3099 11.54 66.2199 11.67C66.9266 11.77 67.2832 12.1767 67.2899 12.89C67.2899 13.34 67.2899 13.78 67.2899 14.23V14.24Z" fill="#BCE1EF"/>
<path d="M64.5898 14.46C64.7398 14.54 64.9298 14.6 64.8598 14.82C64.8398 14.88 64.6798 14.89 64.5898 14.92C64.5898 14.77 64.5898 14.62 64.5898 14.47V14.46Z" fill="#BCE1EF"/>
<path d="M56.27 17.84C56.22 17.94 56.07 18.05 56.05 18C55.94 17.74 56.2 17.9 56.27 17.84Z" fill="#C4E5F1"/>
<path d="M72.6699 27.0299C72.2999 27.4499 72.4198 27.94 72.4598 28.41C72.3898 28.41 72.3098 28.41 72.2398 28.41C72.0598 28.51 72.0198 28.6699 72.0098 28.8599C71.8698 28.6899 71.7298 28.52 71.5998 28.35C71.3698 28.05 71.1798 28.0599 70.8698 28.2999C70.3598 28.6899 70.3098 28.6499 70.2598 27.9899C70.2298 27.5899 69.9398 27.7099 69.7998 27.7799C69.3998 27.9599 69.0199 28.2 68.6399 28.42C68.7099 27.79 68.3198 27.6999 67.8298 27.7399C67.4598 27.7699 67.3798 27.6 67.5198 27.29C67.7098 27.28 67.9298 27.2599 68.0098 27.0799C68.1398 26.7799 67.8998 26.7 67.6798 26.63C67.3098 26.5 67.2299 26.4 67.6399 26.16C67.9799 25.96 67.5798 25.8799 67.4998 25.8399C67.0198 25.5999 67.2398 25.26 67.5198 25.23C68.1798 25.16 68.1098 24.84 67.9598 24.41C67.8398 24.08 67.8498 23.8999 68.2898 24.0499C68.5398 24.1299 68.6798 23.9299 68.5198 23.7399C68.1098 23.2599 68.2498 22.8399 68.7398 22.6799C69.3998 22.4499 69.2298 22.07 69.0898 21.64C69.1098 21.33 69.2798 21.3099 69.5098 21.4299C70.0798 21.4799 70.6098 21.4699 71.0498 20.9899C71.2998 20.7199 71.3998 20.7599 71.5198 21.2699C71.5798 21.5299 71.7599 21.51 71.8899 21.6C72.0699 21.73 72.1998 21.8799 72.0398 22.0499C71.5698 22.5599 72.2498 22.8299 72.2498 23.2399C72.2298 23.2799 72.2098 23.31 72.1798 23.35C72.0898 23.44 71.9899 23.5199 71.8899 23.6099C71.8299 23.6799 71.7598 23.7399 71.6898 23.7999C71.6198 23.8699 71.5498 23.9299 71.4698 23.9899C71.1998 24.1899 70.9199 24.3699 70.6399 24.5499C70.3599 24.7199 70.0398 24.83 69.7498 25.14C70.6098 25.98 71.8098 26.27 72.6798 27.04L72.6699 27.0299Z" fill="#97D1E8"/>
<path d="M67.2899 38.54C66.9299 39.18 66.3999 38.7 65.9499 38.76C66.0199 38.61 66.0999 38.46 66.1699 38.31C65.7199 38.28 65.4899 37.71 64.9599 37.83C64.7499 37.88 64.6199 37.68 64.7099 37.46C64.7699 37.29 64.8399 37.06 65.0799 37.12C65.5399 37.22 65.9599 37.19 66.3899 36.99C66.8799 36.77 67.0499 36.33 66.6799 35.96C66.4599 35.75 66.4299 35.67 66.4999 35.4C66.5799 35.07 66.7399 34.93 67.0299 34.99C67.3099 35.05 67.2999 35.31 67.2999 35.53C67.2999 36.53 67.2999 37.54 67.2999 38.54H67.2899Z" fill="#99CDE6"/>
<path d="M66.1401 25.19C66.0701 25.14 66.0601 25.08 66.1401 25.01C66.1701 24.99 66.2 24.96 66.23 24.96C66.32 24.96 66.36 25.02 66.32 25.1C66.29 25.15 66.21 25.16 66.15 25.19H66.1401Z" fill="#A4D7EA"/>
<path d="M67.5199 27.29C67.4199 27.24 67.3099 27.09 67.3599 27.07C67.6199 26.96 67.4599 27.22 67.5199 27.29Z" fill="#97D1E8"/>
<path d="M62.1099 32.34C62.0799 32.4 62.0599 32.52 62.0299 32.52C61.9399 32.52 61.9099 32.45 61.9599 32.37C61.9999 32.32 62.0799 32.23 62.1099 32.24C62.2499 32.3 62.1099 32.19 62.1099 32.34Z" fill="#A4D7EA"/>
<path d="M62.7799 25.06C62.1899 24.67 61.4499 24.53 60.9799 23.94C60.9599 23.39 61.4499 23.28 61.8699 23.05C61.3899 22.48 60.6999 23.23 60.3599 22.66C61.1099 22.41 61.3299 21.24 62.3799 21.41C63.2399 21.2 63.7299 21.71 64.1499 22.35C64.1499 22.42 64.1499 22.49 64.1499 22.56C64.0799 22.63 63.9999 22.71 63.9299 22.78C63.2899 23.19 62.9399 23.88 62.9499 24.65C62.9499 24.78 62.8499 24.92 62.7899 25.05L62.7799 25.06Z" fill="#ACDAEC"/>
<path d="M61.5299 27.86C61.5299 27.86 61.4699 27.91 61.4399 27.9C61.4099 27.9 61.3899 27.86 61.3599 27.84C61.4199 27.77 61.4799 27.77 61.5299 27.86Z" fill="#ACDBEC"/>
<path d="M62.0898 25.7C62.1698 25.63 62.2598 25.56 62.3398 25.5C62.2598 25.57 62.1698 25.64 62.0898 25.7Z" fill="#ACDBEC"/>
<path d="M63.9199 22.79C63.9199 22.79 64.0099 22.83 64.0099 22.84C63.9899 22.92 63.9599 22.9 63.9199 22.79Z" fill="#ACDAEC"/>
<path d="M62.4599 18.1C62.3999 18.26 62.2699 18.29 62.1299 18.25C62.0399 18.22 61.9699 18.13 61.8899 18.07C62.0199 18.02 62.1399 17.95 62.2799 17.92C62.3899 17.9 62.4699 17.97 62.4599 18.1Z" fill="#B7DFEE"/>
<path d="M61.8898 18.06L61.7998 18.01L61.8398 17.97L61.8898 18.06Z" fill="#B7DFEE"/>
<path d="M58.9698 21.66C58.9398 21.88 58.8898 22.12 58.5798 22.01C58.1998 21.88 57.8398 21.7 57.8398 21.21C58.1398 21.36 58.4398 21.51 58.7398 21.66C58.8098 21.66 58.8898 21.66 58.9598 21.66H58.9698Z" fill="#C4E5F1"/>
<path d="M78.8099 33.27C78.6299 33.38 78.4499 33.46 78.2799 33.27C78.2199 33.2 78.1699 33.04 78.2899 33.01C78.5099 32.95 78.6798 33.09 78.7998 33.28L78.8099 33.27Z" fill="#8CC4E2"/>
<path d="M80.95 33.27C81.27 33.07 81.4899 33.16 81.7899 33.21C81.4999 33.42 81.27 33.39 80.95 33.27Z" fill="#8CC4E2"/>
<path d="M83.48 30.44L83.54 30.34L83.58 30.39L83.48 30.44Z" fill="#8FC7E3"/>
<path d="M72.92 25.71C72.9 25.64 72.9 25.56 72.92 25.49C73.03 25.49 73.14 25.49 73.2 25.6C73.1 25.64 73.01 25.67 72.91 25.71H72.92Z" fill="#95CBE5"/>
<path d="M59.2 27.05C59.35 27.05 59.4999 27.05 59.6499 27.05C59.4999 27.28 59.35 27.29 59.2 27.05Z" fill="#B7DFEE"/>
<path d="M74.9399 30.66C74.7699 30.6 74.4999 30.79 74.4399 30.47C74.4399 30.43 74.5099 30.34 74.5699 30.32C74.8899 30.21 74.8999 30.46 74.9399 30.66Z" fill="#8EC6E3"/>
<path d="M73.21 30.23C73.24 30.32 73.21 30.37 73.11 30.36C73.08 30.36 73.02 30.33 73.02 30.31C73.02 30.25 73.02 30.19 73.03 30.13C73.09 30.16 73.15 30.19 73.2 30.23H73.21Z" fill="#9ED4E9"/>
<path d="M64.99 47.4001C64.93 47.4301 64.85 47.4901 64.81 47.4701C64.72 47.4301 64.73 47.36 64.84 47.33C64.91 47.31 64.98 47.3101 65.05 47.3101C65.03 47.3401 65.01 47.3701 65 47.4001H64.99Z" fill="#97CAE5"/>
<path d="M57.85 21.21C57.85 21.21 57.76 21.17 57.76 21.16C57.78 21.08 57.81 21.1 57.85 21.21Z" fill="#C4E5F1"/>
<path d="M70.7699 22.3C70.9399 22.22 71.0199 22.36 71.0999 22.46C71.2099 22.59 71.3799 22.76 71.1499 22.9C71.0099 22.98 70.9099 22.82 70.8399 22.69C70.7799 22.57 70.6699 22.46 70.7599 22.31L70.7699 22.3Z" fill="#9ED4E9"/>
<path d="M72.23 23.24C72.14 23.42 71.97 23.47 71.79 23.47C71.88 23.28 72.05 23.24 72.23 23.24Z" fill="#9ED4E9"/>
<path d="M66.1699 38.31C66.1999 38.21 66.2299 38.12 66.2499 38.02C66.4599 38.18 66.2499 38.23 66.1699 38.31Z" fill="#9ED4E9"/>
<path d="M25 53.24C25 53.08 25 52.91 25.03 52.76C25.33 51.16 24.66 50.11 23.26 49.36C22.37 48.88 21.55 48.26 20.7 47.69C20.43 47.51 20.16 47.33 19.92 47.12C19.28 46.57 19.02 45.65 19.33 45.12C19.64 44.6 20.61 44.35 21.38 44.67C21.77 44.83 22.1 45.13 22.48 45.33C23.27 45.75 23.9 46.44 24.82 46.73C25.17 45.82 25.05 45.22 24.32 44.57C22.49 42.93 20.77 41.16 19.02 39.44C18.15 38.58 18.08 37.96 18.71 37.22C19.25 36.58 20.08 36.6 20.98 37.36C21.84 38.08 22.65 38.86 23.47 39.61C23.9 40 24.31 40.4 25.03 41.08C25.03 39.53 25.03 38.33 25.03 37.13C25.03 36.49 25.07 35.86 25.26 35.23C25.49 34.48 25.9 34.2 26.65 34.19C27.42 34.18 27.83 34.56 28.1 35.22C28.27 35.64 28.24 36.06 28.24 36.49C28.24 37.88 28.24 39.27 28.24 40.67C28.85 40.79 29.05 40.32 29.34 40.06C30.29 39.2 31.21 38.31 32.16 37.45C32.4 37.24 32.66 37.02 32.96 36.91C33.54 36.7 34.14 36.66 34.57 37.23C34.98 37.78 35.24 38.41 34.71 38.99C34.18 39.58 33.68 40.19 33.07 40.73C31.53 42.06 30.12 43.54 28.65 44.96C28.16 45.44 28.22 46.01 28.35 46.7C29.44 46.47 30.14 45.7 30.98 45.2C31.54 44.87 32.06 44.52 32.75 44.54C33.85 44.56 34.3 45.16 34.01 46.23C33.84 46.86 33.35 47.19 32.86 47.52C31.44 48.48 30.01 49.42 28.58 50.37C27.21 50.78 25.94 51.31 25.58 52.92C25.52 53.18 25.33 53.4 24.99 53.26L25 53.24Z" fill="#C5E5F1"/>
<path d="M24.7101 85.22C24.5001 85.59 24.0901 85.68 23.7701 85.9C23.3701 86.04 22.9401 86 22.5401 86.1C22.1201 86.2 21.6601 86.21 21.4201 85.79C21.1301 85.3 21.3001 84.86 21.8101 84.62C22.3301 84.38 21.5301 84.16 21.8201 83.94C21.9301 83.83 22.0301 83.73 22.1401 83.62C23.0801 82.98 23.7801 82.09 24.5801 81.31C25.1101 80.8 25.0701 80.76 24.9501 79.35C24.0801 79.54 23.5101 80.21 22.7701 80.6C22.3001 80.85 21.8701 81.18 21.3901 81.41C20.4801 81.83 19.8401 81.68 19.4201 81.01C18.9901 80.33 19.2001 79.52 19.9801 78.91C20.2701 78.68 20.5801 78.46 20.8901 78.26C22.2701 77.35 23.6501 76.45 25.0301 75.54C25.2801 74.49 25.3301 73.32 26.6801 72.95C26.9501 72.88 27.0501 72.57 26.9801 72.28C26.8801 71.86 26.6701 71.38 27.2801 71.22C27.7901 71.09 28.2301 71.36 28.5501 71.76C28.9501 72.25 28.8001 72.65 28.2901 72.95C27.8501 74.98 28.9301 76.14 30.5701 77.03C31.4201 77.49 32.2101 78.05 33.0101 78.59C33.2801 78.77 33.5301 78.98 33.7301 79.23C34.2201 79.82 34.2401 80.62 33.8101 81.15C33.3501 81.72 32.7301 81.84 31.9301 81.39C30.9001 80.81 29.9201 80.16 28.9101 79.54C28.7801 79.46 28.6301 79.4 28.4301 79.31C28.0901 80.25 28.3501 80.8999 28.9901 81.6099C30.0601 82.8199 31.5201 83.6 32.4901 84.92C32.6001 85.02 32.6901 85.15 32.8101 85.25C31.7101 86.53 30.9101 86.7 29.5501 85.91C29.2201 85.71 28.8201 85.6 28.6201 85.23C27.7701 85.07 28.1701 85.72 28.1401 86.02C28.0501 87.21 27.3501 87.87 26.2401 87.68C25.1201 87.48 25.1001 86.64 25.4001 85.85C25.7701 84.88 25.1501 85.22 24.7401 85.24L24.7101 85.22Z" fill="#B6D2E9"/>
<path d="M20.16 70.4C19.98 70.29 19.81 70.15 19.61 70.08C19.12 69.91 18.81 69.15 18.09 69.69C17.41 70.21 16.42 70.44 16.61 71.65C16.68 72.09 16.74 72.61 16.33 72.99C15.02 71.48 15.27 69.58 15.01 67.8C15.55 67.74 15.98 67.43 16.43 67.16C16.97 66.83 17.22 66.5 17.03 65.77C16.85 65.08 16.97 64.31 16.97 63.58C17.12 63.43 17.26 63.26 17.43 63.14C18.79 62.19 19.44 62.44 19.94 64.09C21.58 64.16 22.42 63.56 22.25 62.44C22.16 62.32 22.09 62.19 22.03 62.05C22.02 61.98 22.01 61.9 22 61.83C22.26 60.77 22.19 59.45 23.83 59.46C24.1 59.38 24.58 59.91 24.59 59.47C24.6 58.63 25.01 57.64 24.1 56.96C23.79 57.04 23.37 56.43 23.16 57.12C23.08 57.24 22.98 57.33 22.86 57.4C22.37 57.55 21.74 57.97 21.49 57.28C21.29 56.74 21.59 56 22.2 55.83C23.05 55.58 23.51 55.1 23.85 54.33C24.02 53.95 24.54 53.9 24.91 53.71C25.7 53.3 26.68 53.13 26.95 51.95C27.13 51.16 27.68 51.42 28.05 51.95C28.23 52.35 27.9 52.86 28.31 53.22C29.49 53.37 30.58 53.75 31.49 54.54C31.94 56.29 30.56 56.45 29.47 56.86C28.07 57.71 28.76 58.95 28.89 60.08C29.32 61.86 29.23 62.08 27.62 62.68C27.12 62.87 26.82 63.14 26.67 63.64C26.37 64.64 25.76 65.43 24.93 66.06C24.01 66.91 22.69 67.22 21.87 68.22C21.34 68.66 19.87 68.48 20.82 69.91C20.97 70.14 20.47 70.34 20.16 70.4Z" fill="#B1DCED"/>
<path d="M41.1599 59.41C40.4199 59.13 39.6199 58.95 38.9399 58.56C37.9099 57.97 37.2399 58.59 36.4999 59.08C36.1299 59.33 36.2599 59.7 36.2699 60.08C36.3199 61.89 36.3299 63.7 36.3099 65.51C36.3099 66.03 36.1499 66.55 36.0699 67.07C35.0299 69.51 33.0499 69.08 31.0899 68.69C31.0899 67.71 30.1199 67.3 29.7799 66.52C29.7299 65.58 30.1299 64.63 29.3999 63.7C29.0499 63.25 29.1199 62.41 30.1599 62.52C30.5099 63 30.9499 63.38 31.4899 63.62C31.9099 63.8 32.3499 64.37 32.7699 64.02C33.2899 63.57 33.0399 62.82 32.9799 62.21C32.9299 61.73 32.5699 61.85 32.2599 62C31.8299 62.2 31.4199 62.47 30.9099 62.39C30.2099 61.29 30.2399 60.13 30.6699 58.95C30.8399 58.55 30.9699 58.14 31.0899 57.73C31.6599 56.9 32.2499 56.09 33.0999 55.52C33.2799 55.64 33.4799 55.73 33.6299 55.88C34.1199 56.38 34.6499 56.74 35.3299 56.3C35.9799 55.88 36.6199 55.54 36.7099 54.52C36.8599 52.92 37.0099 51.33 36.9899 49.73C36.9899 49.29 37.0699 48.89 37.2699 48.49C37.5399 47.93 37.9799 47.73 38.5699 47.76C39.2499 47.8 39.8099 48.19 39.8299 48.79C39.8699 50.38 40.1699 51.99 39.5899 53.55C40.9599 54.39 41.3299 55.63 40.7999 57.08C40.5699 57.71 40.8399 57.77 41.2599 57.95C41.7299 58.15 42.0999 58.46 41.7499 59.05C41.6099 59.25 41.4199 59.37 41.1699 59.4L41.1599 59.41Z" fill="#C6E6F1"/>
<path d="M2.10002 54.87C3.54002 54.39 5.07 54.15 6.58 53.42C5.52 52.29 4.15 51.97 3.11 51.16C2.77 50.9 2.37001 50.72 2.06001 50.44C1.40001 49.84 1.26002 48.99 1.66002 48.43C2.07002 47.87 2.91003 47.67 3.67003 48.06C5.00003 48.75 6.3 49.5 7.61 50.22C7.74 50.29 7.89001 50.35 8.09001 50.45C8.40001 49.73 8.16003 49.1 7.98003 48.44C7.70003 47.36 7.43002 46.27 7.29002 45.16C7.15002 44.08 7.60001 43.41 8.34001 43.26C9.13001 43.1 9.90001 43.68 10.15 44.69C10.7 46.91 11.15 49.16 11.69 51.39C11.93 52.38 12.35 53.01 13.09 53.56C11.95 54.8 10.21 54.92 8.90001 55.83C7.71001 56.13 6.63002 56.82 5.35002 56.8C4.12002 56.92 3.18002 56.06 2.04002 55.82C1.59002 55.73 1.61 55.17 2.11 54.87H2.10002Z" fill="#C9E7F1"/>
<path d="M38.5799 67.76C40.3499 66.8 42.0699 65.73 43.9899 65.09C45.0199 64.74 45.8499 65.27 45.9899 66.26C46.0999 67.01 45.6899 67.47 45.0699 67.78C44.2199 68.22 43.3499 68.63 42.4999 69.08C42.1899 69.24 41.7699 69.3 41.6499 69.8C42.4799 70.75 43.4599 70.28 44.4099 70.08C44.8399 70.57 44.7599 71.05 44.3799 71.52C43.8999 72.11 43.4299 71.55 42.9499 71.46C42.9299 72.75 42.4499 73.86 41.8099 74.92C41.3199 74.5 41.5799 73.78 41.1799 73.31C40.9199 73 40.6099 72.72 40.2499 72.76C39.7299 72.82 39.8799 73.33 39.8799 73.67C39.8699 74.64 39.8999 75.6 39.8899 76.57C39.8799 77.65 39.4399 78.28 38.6699 78.34C37.8499 78.41 37.0499 77.58 36.9999 76.55C36.9599 75.8 36.9199 75.04 36.9799 74.3C37.0599 73.16 36.5599 72.09 36.6199 70.96C36.6399 70.59 36.3599 70.41 36.0699 70.23C35.6099 69.95 35.1599 69.66 34.7099 69.38C33.9899 68.83 34.3399 68.57 34.9899 68.59C35.9599 68.61 36.8799 68.43 37.8199 68.26C38.1799 68.2 38.3999 68.05 38.5699 67.76H38.5799Z" fill="#BBD4EA"/>
<path d="M41.5 59.06C41.63 58.74 41.67 58.5 41.27 58.29C40.78 58.03 40.2 58.22 39.67 57.88C39.88 57.37 40.54 57.31 40.64 56.7C40.73 56.13 40.18 55.66 40.57 55.04C40.68 54.87 40.07 54.34 39.58 54.17C39.24 54.05 39.32 53.77 39.58 53.57C39.79 53.8 40 53.78 40.22 53.57C40.4 53.39 40.7 53.45 40.87 53.23C41.7 52 41.79 50.54 42.16 49.17C42.53 47.78 42.76 46.35 43.16 44.97C43.56 43.58 44.28 43.03 45.11 43.29C45.89 43.54 46.25 44.5 45.99 45.77C45.78 46.81 45.57 47.86 45.27 48.88C45.1 49.46 45.07 50.03 45.08 50.62C45.18 50.74 45.29 50.75 45.39 50.62C46.7 49.58 48.15 48.77 49.65 48.04C50.41 47.67 51.26 47.86 51.66 48.43C52.06 48.99 51.93 49.89 51.24 50.44C50.14 51.3 48.92 51.99 47.65 52.57C47.47 52.45 47.21 52.51 47.06 52.36C46.38 51.66 45.55 51.4 44.8 52.04C44.2 52.55 43.24 52.99 43.75 54.2C44.03 54.87 43.26 55.14 42.81 55.48C42.43 55.72 41.92 55.78 41.66 56.32C42.17 57.07 43.22 57.06 43.78 57.74C43.27 59.25 42.9 59.47 41.51 59.04L41.5 59.06Z" fill="#C2E4F0"/>
<path d="M8.89011 55.84C8.55011 55.39 8.99011 55.25 9.23011 55.19C10.3701 54.9 11.3501 54.33 12.3101 53.68C12.5001 53.55 12.8201 53.6 13.0801 53.57C13.4501 53.52 13.7001 53.39 13.5701 52.95C13.2401 51.79 13.4301 50.6 13.4101 49.43C13.3901 48.35 13.8701 47.82 14.7301 47.76C15.5801 47.7 16.1201 48.21 16.2701 49.26C16.3301 49.63 16.3401 50.02 16.3001 50.39C16.1201 51.91 16.6001 53.36 16.6701 54.86C16.7301 56.12 18.5301 56.88 19.4301 56.05C20.3201 55.22 21.4001 54.76 22.4401 54.22C22.8701 54.98 22.3401 55.46 21.8801 55.87C21.0101 56.64 20.6001 57.59 20.1501 58.66C19.4901 60.21 18.5601 61.74 16.9601 62.62C16.9601 61.92 16.9801 61.22 16.9601 60.52C16.9401 60.02 17.3901 59.43 16.7501 59.05C16.1301 58.68 15.5701 58.08 14.7101 58.38C14.6101 58.42 14.5001 58.41 14.3901 58.43C14.2101 58.61 13.9001 58.53 13.7301 58.73C13.6301 58.74 13.5201 58.75 13.4201 58.76C12.7701 58.08 12.0801 57.42 11.7901 56.48C11.3601 55.73 10.6601 55.53 9.86008 55.51C9.68008 55.7 9.38009 55.62 9.21009 55.82C9.10009 55.82 9.00011 55.83 8.89011 55.83V55.84Z" fill="#C6E6F1"/>
<path d="M16.97 62.6199C18 61.6199 18.38 60.0999 19.64 59.2699C19.93 59.0799 19.87 58.6899 19.87 58.3799C19.87 57.3299 20.39 56.5799 21.21 55.9899C21.83 55.5499 22.31 54.9999 22.45 54.2199C23.17 53.5499 24.07 53.3599 25 53.2399C25.1 53.1199 25.3 52.9999 25.3 52.8899C25.22 50.9599 26.85 50.7099 28.07 50.0699C28.26 49.9699 28.46 50.1699 28.6 50.3499C28.47 50.4299 28.39 50.5699 28.27 50.6599C27.92 51.0399 28.3 51.5899 27.95 51.9599C27.72 52.0299 26.99 51.1199 27.32 52.2499C27.51 52.8799 27.37 53.1299 26.75 53.2499C25.86 53.4199 25.27 54.1999 24.33 54.3899C23.61 54.5299 23.82 55.3099 23.99 55.8899C23.49 56.2699 22.99 55.7099 22.45 55.9799C21.84 56.2899 22.04 56.8999 21.68 57.3299C22.19 57.2599 22.65 57.1899 23.11 57.1199C23.31 57.7299 22.56 57.8199 22.48 58.2799C22.77 58.8899 23.81 58.8099 23.77 59.7099C23.02 59.8899 22.38 60.1499 22.67 61.1399C22.81 61.5999 22.25 61.6699 22.13 61.9899C21.96 62.1399 21.73 62.2199 21.53 62.1299C20.52 61.6699 20.18 62.0299 20.26 63.0599C20.29 63.4799 20.26 63.9299 19.86 64.2299C19.61 64.1899 19.23 64.2299 19.12 64.0799C18.84 63.7199 19.4 63.7899 19.47 63.5999C19.58 63.2999 19.44 63.0499 19.15 62.9899C18.74 62.8999 18.29 62.8499 17.98 63.2299C17.71 63.5599 17.36 63.5799 16.98 63.5899C16.98 63.2699 16.98 62.9399 16.98 62.6199H16.97Z" fill="#B7DFEE"/>
<path d="M28.26 72.94C28.42 72.2266 28.0567 71.7533 27.17 71.52C26.98 71.83 27.17 72.03 27.4 72.17C27.77 72.4 27.81 72.64 27.47 72.91C27.26 73.07 27.04 73.23 26.8 73.34C25.97 73.72 25.14 74.08 25.39 75.26C25.4 75.32 25.15 75.43 25.01 75.52C25.02 75.2 25.04 74.88 25.04 74.56C25.04 73.11 25.22 73.06 23.64 72.52C22.96 72.28 22.21 72.05 21.78 71.36C22.13 70.5 22.27 69.53 23.07 68.91C23.71 68.68 24.3 69.16 24.94 69.04C25.41 68.8 25.81 68.42 26.34 68.3C26.92 68.17 27.42 68.16 27.52 68.92C27.6 69.02 27.29 69.23 27.62 69.26C27.89 69.26 28.14 69.26 28.4 69.2C29.02 69.03 29.61 68.75 30.26 68.7C30.98 68.71 31.64 68.88 32.03 69.53C32.32 70.01 32.08 70.19 31.62 70.14C32.03 70.58 32.8 69.15 33.12 70.36C32.99 70.44 32.89 70.56 32.78 70.67C32.68 70.77 32.57 70.87 32.46 70.96C31.12 71.74 29.85 72.67 28.26 72.92V72.94Z" fill="#B8D6EB"/>
<path d="M15.02 67.81C15.7 68.32 15.06 69.51 16.07 69.86C16.11 69.87 16.15 69.97 16.14 69.98C14.97 71.07 16.65 71.97 16.34 73C16.32 74.18 16.29 75.35 16.3 76.53C16.3 77.25 16.02 77.76 15.4 78.1C14.56 78.56 13.48 78.16 13.45 77.23C13.41 75.7 13.16 74.13 13.72 72.63C14.41 71.72 13.81 70.74 13.88 69.8C13.93 69.23 13.54 69.25 13.16 69.24C12.68 69.22 12.23 69.34 11.77 69.44C11.41 69.42 11.13 69.23 10.83 69.05C10.62 67.67 11.3 67.1 13.12 67.11C13.85 67.09 14.42 67.48 15.02 67.81Z" fill="#A7CEE7"/>
<path d="M42.79 55.4999C42.95 55.2199 43.06 54.8899 43.28 54.6799C43.55 54.4199 43.48 54.3399 43.25 54.0899C42.79 53.5899 42.64 53.0799 43.54 52.8399C43.75 52.7799 43.85 52.5899 43.93 52.3799C44.24 51.5999 44.87 51.3699 45.67 51.2799C46.51 51.1899 46.93 51.6 47.29 52.23C47.37 52.36 47.51 52.4599 47.62 52.5799C47.32 52.7799 46.98 52.9499 46.86 53.3999C47.91 54.3099 49.46 54.0099 50.54 54.8499C49.78 55.5499 49.85 56.5699 49.56 57.4399C47.3 56.7899 45.04 56.1499 42.78 55.4999H42.79Z" fill="#BBE0EE"/>
<path d="M11.7801 74.24C11.3501 76.07 10.9201 77.91 10.4901 79.74C9.48006 80.38 8.17006 79.71 7.90006 78.42C7.83006 77.78 8.13007 77.2 8.22007 76.59C8.28007 76.13 8.36008 75.61 7.64008 75.57C7.09008 75.87 6.69008 75.59 6.82008 75.09C7.08008 74.06 7.06007 72.97 7.41007 71.99C7.68007 71.23 8.20007 70.49 9.22007 71.24C9.27007 71.8 8.96008 72.39 10.0101 72.6C10.6901 72.73 11.3001 73.58 11.7901 74.25L11.7801 74.24Z" fill="#ABD0E8"/>
<path d="M41.8101 74.92C42.0601 74.07 41.6901 73.0099 42.6801 72.3999C42.8301 72.3099 42.8201 71.9399 42.5901 71.8699C42.1601 71.7399 42.0401 71.4499 42.3301 71.2099C42.6701 70.9299 43.1801 70.8199 43.6201 71.0299C44.2601 71.3299 44.2601 71.3699 44.3801 70.8699C44.4401 70.6199 44.4101 70.3399 44.4201 70.0799C45.0601 69.9499 45.6901 69.83 46.3301 69.7C47.5401 70.32 47.2801 71.3199 47.0101 72.3199C46.8901 72.4099 46.7501 72.4699 46.6001 72.4899C46.3401 72.4599 46.4701 72.7099 46.3801 72.7999C45.4301 73.5899 45.4201 74.8399 44.9201 75.8499C44.6501 76.3899 44.4301 76.9099 43.9101 77.2299C42.9901 77.79 42.3401 77.7299 42.1601 76.4999C42.1101 75.9599 41.7401 75.4799 41.8201 74.9099L41.8101 74.92Z" fill="#B3D3E9"/>
<path d="M11.78 74.24C11.18 73.88 10.28 73.96 10.1 72.99C10.04 72.65 9.70997 72.73 9.44997 72.82C9.08997 72.94 8.62995 73.09 8.42995 72.74C8.19995 72.33 8.54997 71.96 8.87997 71.67C8.99997 71.57 9.09995 71.45 9.20995 71.33C9.23995 70.15 10.31 70.74 10.82 70.39C11.2 70.13 11.7699 70.07 11.7699 69.43C11.8799 68.28 12.77 69.06 13.26 68.84C13.72 68.63 14.0799 68.9 14.3599 69.26C14.4199 69.34 14.5 69.51 14.47 69.54C13.59 70.36 14.43 70.81 14.94 71.3C14.49 71.79 14.1 72.21 13.72 72.63C13.63 72.53 13.54 72.43 13.45 72.32C13.24 72.48 12.9299 72.41 12.7699 72.65C12.2699 73.07 11.83 73.53 11.78 74.23V74.24Z" fill="#9CC7E4"/>
<path d="M24.7099 85.22C25.1999 84.54 25.79 84.77 26.39 84.99C26.42 85.49 26.0499 85.6599 25.7599 85.8299C25.2199 86.1499 25.4699 86.64 25.5899 86.95C25.7399 87.34 26.1599 87.4499 26.6499 87.2999C28.0699 86.8699 28.2299 86.55 27.6199 85.01C27.9999 84.8 28.3199 84.87 28.5899 85.2C28.1299 85.56 28.2699 86.07 28.2599 86.54C28.2399 87.72 28.2299 88.9 28.2599 90.07C28.2799 90.73 28.0099 91.2 27.5299 91.6C26.8499 92.17 26.1399 92.1 25.5799 91.4C25.1699 90.88 25.0199 90.27 25.0299 89.6C25.0499 88.53 25.0399 87.46 25.0299 86.39C25.0299 85.97 25.13 85.52 24.7 85.22H24.7099Z" fill="#BFD9EC"/>
<path d="M11.7902 56.48C11.9202 56.64 12.0202 56.92 12.1702 56.94C13.2402 57.11 13.2502 57.98 13.4202 58.75C12.2802 59.74 10.9401 60.39 9.52014 60.84C8.42014 61.19 7.65014 60.91 7.36014 60.12C7.11014 59.42 7.48015 58.66 8.37015 58.19C9.50014 57.6 10.6501 57.04 11.8001 56.47L11.7902 56.48Z" fill="#CBE6F2"/>
<path d="M46.3401 72.3101C46.5601 72.3101 46.7801 72.3101 47.0001 72.3201C46.7901 72.6801 46.7701 72.9701 47.2001 73.2201C47.7801 73.5501 48.4601 73.7201 48.9301 74.2401C48.7001 75.2901 47.5901 75.91 46.0201 75.86C45.4701 75.59 45.0101 75.48 45.0501 76.36C45.0601 76.62 45.0701 76.8801 45.0701 77.1401C45.2501 78.3701 45.4901 79.6101 43.8401 80.1201C43.3301 80.2801 43.0501 80.1701 42.8101 79.7501C42.8101 78.6301 42.0001 77.6701 42.1501 76.5201C42.7401 77.3401 43.1501 77.43 43.8701 76.86C44.2401 76.56 44.6501 76.2501 44.7001 75.7101C44.7601 74.9701 45.3201 74.3701 45.2201 73.5901C45.1201 72.7501 46.3501 73.0701 46.3401 72.3101Z" fill="#BFDEEE"/>
<path d="M21.81 83.9399C22.08 84.4999 22.59 83.8199 22.94 84.1799C22.88 84.7399 22.3 84.5699 22.01 84.7999C21.76 84.9999 21.43 85.1499 21.59 85.5299C21.78 85.9799 22.28 85.9799 22.51 85.7299C23.07 85.14 23.39 85.55 23.77 85.89C22.98 86.97 21.96 87.8399 20.99 88.7399C20.05 89.6199 19.4 89.5599 18.68 88.7199C18.12 88.0599 18.07 87.5199 18.7 86.8999C19.71 85.8899 20.63 84.7699 21.81 83.9299V83.9399Z" fill="#C2DCED"/>
<path d="M10.8201 70.4C10.3501 70.83 9.54009 70.67 9.21009 71.34C8.85009 71.4 8.45011 70.96 8.16011 71.34C7.88011 71.7 7.4401 72.27 7.5601 72.55C7.9401 73.45 7.4501 74.1 7.1501 74.82C6.9301 75.35 7.20012 75.49 7.64012 75.56C7.42012 75.95 7.09012 76.17 6.64012 76.19C6.03012 76.39 6.03011 75.86 6.07011 75.58C6.18011 74.8 5.91009 74.05 5.99009 73.29C6.08009 73.27 6.17009 73.25 6.27009 73.24C6.52009 73.11 6.88009 73.04 6.61009 72.62C6.08009 72.39 5.60011 72.03 5.01011 71.95C4.29011 71.4 4.0101 70.53 4.3401 69.83C4.6701 69.14 5.56009 69.12 6.33009 69.37C7.80009 69.82 9.28011 70.26 10.8201 70.38V70.4Z" fill="#B4D2E9"/>
<path d="M13.1199 67.11C12.4799 67.19 12.1299 67.84 11.4099 67.89C10.8499 67.93 10.7999 68.54 10.8299 69.05C10.0099 68.65 9.17993 68.28 8.37993 67.85C7.30993 67.27 7.05993 66.65 7.46993 65.79C7.84993 65 8.44992 64.77 9.48992 65.16C10.7899 65.64 12.1099 66.1 13.1199 67.11Z" fill="#BAD5EB"/>
<path d="M46.02 75.86C46.86 75.87 47.38 74.94 48.32 75.1C48.6 75.15 48.75 74.56 48.93 74.24C49.64 74.61 50.37 74.93 51.05 75.35C51.83 75.83 52.06 76.72 51.67 77.41C51.31 78.05 50.54 78.35 49.72 78C48.41 77.44 47.2 76.67 46.02 75.86Z" fill="#CAE7F2"/>
<path d="M29.52 85.89C29.98 85.52 30.53 86.68 31.06 85.74C31.36 85.21 32.32 85.84 32.78 85.23C33.56 85.64 34.05 86.37 34.65 86.97C35.19 87.51 35.13 88.11 34.65 88.69C34.05 89.41 33.58 89.59 32.86 89.11C31.56 88.24 30.53 87.07 29.53 85.89H29.52Z" fill="#BDD9EC"/>
<path d="M33.1201 70.38C32.4801 69.73 31.7001 70.87 31.0601 70.15C31.0901 69.62 31.6801 70.27 31.8101 69.86C31.5001 69.11 30.8501 69.03 30.1501 69.05C30.0801 68.84 30.1901 68.7 30.3301 68.57C30.4801 68.45 30.6401 68.36 30.8201 68.3C30.9501 68.27 31.0601 68.3 31.1601 68.4C31.2401 68.54 31.4201 68.71 31.5201 68.61C31.9701 68.17 32.3901 68.25 32.9301 68.47C33.9501 68.89 34.5401 68.66 35.0401 67.64C35.2901 67.13 35.6801 67.17 36.0701 67.07C36.4001 66.9 36.6601 67.02 36.9501 67.23C37.4301 67.57 37.9501 67.86 38.5801 67.76C38.7801 68.19 38.8901 68.71 38.2301 68.65C37.0901 68.54 36.0401 69.46 34.8501 68.82C34.5601 68.66 34.6701 69.16 34.7201 69.39C34.1301 69.63 33.8601 70.37 33.1301 70.39L33.1201 70.38Z" fill="#BEDAEC"/>
<path d="M42.8101 79.74C43.0901 79.83 43.3701 80.14 43.6701 79.82C43.9201 79.56 44.0601 79.14 44.5101 79.19C45.0701 79.25 44.9801 78.98 44.8401 78.64C44.6101 78.09 44.81 77.61 45.08 77.14C45.85 78.48 45.9501 79.97 46.0301 81.46C46.0801 82.26 45.5901 82.68 44.9201 82.83C44.2801 82.97 43.7801 82.6 43.4701 82.05C43.0701 81.34 42.9901 80.53 42.8101 79.75V79.74Z" fill="#CBE7F2"/>
<path d="M41.4999 59.06C42.6499 59.31 43.1299 58.4 43.7699 57.76C44.3199 57.81 44.7899 58.08 45.2299 58.36C45.8899 58.78 46.1599 59.53 45.9299 60.14C45.6899 60.78 44.9999 61.19 44.2299 60.97C43.1199 60.65 41.9499 60.39 41.1699 59.41C41.2799 59.3 41.3899 59.18 41.5099 59.06H41.4999Z" fill="#BEDDEE"/>
<path d="M49.2299 68.74C49.92 68.32 50.6899 68.18 51.4799 68.1C52.2299 68.02 52.6599 68.39 52.9599 69.05C53.2699 69.74 52.8799 70.15 52.4399 70.57C52.3199 70.68 52.1999 70.82 52.0599 70.86C50.6899 71.22 49.42 71.96 47.95 71.98C48.02 70.75 48.9699 70.53 49.8999 70.17C49.7699 69.72 49.3599 69.29 49.2299 68.74Z" fill="#C1DFEF"/>
<path d="M49.5701 57.4401C49.0701 56.8401 49.5 56.14 49.43 55.49C49.38 55.07 50.21 55.1501 50.56 54.8501C51.44 54.8301 52.2601 54.9801 52.7801 55.7901C53.0801 56.2501 53.27 56.7501 52.83 57.2501C52.44 57.6801 52.0701 58.23 51.3901 57.99C50.7901 57.78 50.12 57.8201 49.58 57.4401H49.5701Z" fill="#B5D3E9"/>
<path d="M7.89992 78.42C7.93992 78.63 7.97993 78.96 8.15993 78.94C8.77993 78.88 9.09994 79.17 9.38994 79.67C9.67994 80.18 10.1099 79.93 10.4899 79.73C10.3399 80.35 10.2399 80.98 10.0399 81.59C9.76993 82.41 9.00994 82.95 8.38994 82.85C7.65994 82.73 7.28993 82.17 7.25993 81.16C7.22993 80.19 7.45994 79.28 7.88994 78.41L7.89992 78.42Z" fill="#BAD9EC"/>
<path d="M2.10004 54.87C1.85004 55.36 1.98003 55.88 2.52003 55.76C3.59003 55.53 4.20004 56.12 4.88004 56.7C4.99004 56.79 5.19003 56.77 5.34003 56.8C4.35003 57.46 3.17003 57.57 2.08003 57.95C1.20003 58.25 0.780053 57.66 0.390053 57.11C-0.0799466 56.45 0.390036 55.88 0.810036 55.42C1.13004 55.08 1.59004 54.88 2.10004 54.87Z" fill="#CFEAF3"/>
<path d="M49.2301 68.74C50.3301 68.93 49.7701 70.3 50.7801 70.68C49.2301 70.11 48.6801 71.23 47.9501 71.98C47.6401 72.12 47.3601 72.33 46.9901 72.32C46.5701 71.5 46.9101 70.48 46.3101 69.7C47.1701 69.05 48.2601 69.09 49.2201 68.74H49.2301Z" fill="#B9D9EC"/>
<path d="M5.99015 73.3C6.43016 73.81 6.65017 74.37 6.47017 75.05C6.37017 75.45 6.12017 75.8801 6.63017 76.2001C6.20017 76.7001 5.55015 76.8401 5.02015 77.1701C3.98015 77.5701 3.78016 76.6801 3.40016 76.1001C2.91016 75.3301 3.51015 74.9501 4.02015 74.5601C4.15015 74.4801 4.24015 74.3601 4.36015 74.2501C4.80015 73.7601 5.42016 73.58 5.99015 73.3Z" fill="#BBD8EC"/>
<path d="M4.03005 74.55C3.95005 74.96 3.25004 75.2901 3.58004 75.6401C4.05004 76.1501 4.00004 77.1901 5.02004 77.1501C4.66004 77.5801 4.15006 77.7601 3.66006 77.9601C2.75006 78.3301 1.95005 78.0601 1.59005 77.3501C1.22005 76.6201 1.47006 75.8001 2.29006 75.3101C2.83006 74.9901 3.37005 74.61 4.03005 74.55Z" fill="#C4E2F0"/>
<path d="M23.12 69.03C22.66 69.8 22.7001 70.86 21.7901 71.37C21.6901 71.36 21.5801 71.34 21.4801 71.32C21.3701 71.22 21.2601 71.12 21.1401 71.02C20.9901 70.8 20.67 70.88 20.5 70.69C20.39 70.59 20.2701 70.49 20.1601 70.4C20.2701 70.12 20.95 69.95 20.18 69.51C19.41 69.08 19.4901 68.75 20.3201 68.44C20.8001 68.26 21.29 68.04 21.83 68.09C22.56 67.99 23.06 68.21 23.11 69.03H23.12Z" fill="#A9D3E9"/>
<path d="M3.07003 71.34C2.15003 71.28 1.29002 71.06 0.630025 70.36C0.270025 69.98 0.0800163 69.59 0.340016 69.07C0.580016 68.57 0.85001 68.12 1.49001 68.12C2.40001 68.12 3.26003 68.3 4.07003 68.75C3.38003 69.48 2.80001 70.25 3.08001 71.35L3.07003 71.34Z" fill="#C8E6F1"/>
<path d="M3.06998 71.34C2.13998 70.22 2.43997 69.45 4.05997 68.74C4.76997 69.11 5.64998 68.89 6.31998 69.39C5.66998 69.38 5.08999 69.62 4.38999 69.96C4.89999 70.55 4.85997 71.28 4.99997 71.97C4.24997 72.07 3.68997 71.63 3.05997 71.34H3.06998Z" fill="#BCD9EC"/>
<path d="M33.0999 55.5201C32.6999 56.4801 32.04 57.2101 31.17 57.7701C31.1 57.7701 31.0299 57.7801 30.9599 57.7901C30.8199 57.7901 30.6699 57.7701 30.5299 57.7401C29.9599 57.4701 29.27 57.3201 29.2 56.5001C30.32 56.2701 31.3799 55.97 31.4899 54.55C32.0399 54.85 32.6799 55.0101 33.0999 55.5201Z" fill="#BAE1EE"/>
<path d="M27.9401 51.96C27.9901 51.51 27.7901 51.01 28.2601 50.67C28.2801 51.53 28.2901 52.38 28.3101 53.24C27.7701 52.94 28.0101 52.41 27.9401 51.97V51.96Z" fill="#C5E5F1"/>
<path d="M6.60999 72.63C6.85999 72.76 7.01001 73 6.89001 73.24C6.73001 73.58 6.48001 73.29 6.26001 73.25C6.37001 73.04 6.49001 72.84 6.60001 72.63H6.60999Z" fill="#BBD8EC"/>
<path d="M40.8499 53.23C40.7199 53.51 40.48 53.56 40.2 53.57C40.34 53.32 40.5799 53.25 40.8499 53.23Z" fill="#C6E6F1"/>
<path d="M40.2101 53.5701C39.9901 53.9001 39.7801 53.9101 39.5701 53.5701C39.7801 53.5701 40.0001 53.5701 40.2101 53.5701Z" fill="#C6E6F1"/>
<path d="M9.20996 55.82C9.34996 55.56 9.59995 55.51 9.85995 55.51C9.70995 55.76 9.47996 55.83 9.20996 55.82Z" fill="#C9E7F1"/>
<path d="M13.73 58.73C13.88 58.47 14.12 58.42 14.39 58.43C14.24 58.68 14 58.74 13.73 58.73Z" fill="#CBE6F2"/>
<path d="M20.5 70.7C20.77 70.7 21.02 70.7599 21.14 71.0399C20.87 71.0299 20.64 70.95 20.5 70.7Z" fill="#B8D6EB"/>
<path d="M12.77 72.6601C12.9 72.3601 13.16 72.31 13.45 72.33C13.28 72.56 13.03 72.6301 12.77 72.6601Z" fill="#A7CEE7"/>
<path d="M45.3701 50.64C45.2601 50.89 45.1601 50.88 45.0601 50.64C45.1601 50.64 45.2701 50.64 45.3701 50.64Z" fill="#BBE0EE"/>
<path d="M32.78 70.69C32.89 70.58 33 70.48 33.12 70.37C33.01 70.48 32.9 70.58 32.78 70.69Z" fill="#BEDAEC"/>
<path d="M21.1401 71.03C21.2501 71.13 21.3701 71.23 21.4801 71.33C21.3101 71.3 21.2001 71.2 21.1401 71.03Z" fill="#B8D6EB"/>
<path d="M4.37003 74.24C4.26003 74.34 4.15003 74.45 4.03003 74.55C4.14003 74.45 4.25003 74.34 4.37003 74.24Z" fill="#C4E2F0"/>
<path d="M31.1299 85.06C30.3999 85.21 29.5899 85.68 29.1699 84.57C29.0499 84.26 28.4899 84.72 28.3999 84.11C28.8599 83.8 29.4199 83.3 29.7499 84.16C30.0399 84.91 30.5699 84.88 31.1299 85.06Z" fill="#BDD9EC"/>
<path d="M28.27 69.72C27.9 69.74 27.61 69.53 27.3 69.4C27.27 68.92 27.38 68.42 26.53 68.62C25.82 68.78 25.47 69.29 25.01 69.71C24.34 68.46 24.55 67.15 24.72 65.84C25.51 65.07 26.32 64.32 26.38 63.09C26.41 62.51 26.89 62.37 27.41 62.3C28.87 62.09 28.95 61.93 28.57 60.34C28.97 59.28 29.67 58.75 30.84 59.06C30.69 60.14 30.85 61.21 30.86 62.29C30.75 62.59 30.57 62.78 30.22 62.63C29.32 62.84 29.5 63.37 29.82 63.95C29.98 64.24 30.56 64.37 30.53 64.38C29.53 64.87 31.0001 66.09 29.8901 66.5C29.8301 66.5 29.78 66.5 29.72 66.5C29.61 66.49 29.51 66.46 29.41 66.43C29.31 66.4 29.21 66.37 29.12 66.35C28.94 66.36 28.84 66.47 28.78 66.63C28.53 67.65 28.97 68.78 28.28 69.72H28.27Z" fill="#BEE2EF"/>
<path d="M24.09 56.49C23.84 56.83 23.44 56.94 23.09 57.11C22.79 55.87 23.76 56.7 24.09 56.49Z" fill="#B7DFEE"/>
<path d="M27.2901 69.4C27.2901 69.4 27.2301 69.53 27.2201 69.53C27.1101 69.51 27.1401 69.46 27.2901 69.4Z" fill="#BEE2EF"/>
<path d="M46.3399 72.3101C46.1999 72.2701 46.0599 72.2301 45.9199 72.1901C46.1599 71.8901 46.2199 72.1901 46.3399 72.3101Z" fill="#BFDEEE"/>
<path d="M13.4901 69.6C13.4901 69.6 13.4001 69.6301 13.3501 69.6401C13.3401 69.6001 13.3101 69.53 13.3201 69.52C13.4401 69.43 13.5001 69.46 13.4901 69.6Z" fill="#A7CEE7"/>
<path d="M29.87 66.49C29.6 66.49 29.37 66.42 29.23 66.16C29.5 66.16 29.73 66.23 29.87 66.49Z" fill="#C6E6F1"/>
</svg>
