<svg xmlns="http://www.w3.org/2000/svg" viewBox="0 0 216.2 153.41"><defs><style>.cls-1,.cls-11,.cls-12,.cls-15,.cls-16,.cls-17,.cls-5,.cls-9{fill:none;}.cls-1,.cls-9{stroke:#1c2123;}.cls-1,.cls-11,.cls-16,.cls-9{stroke-miterlimit:10;}.cls-1,.cls-16,.cls-17{stroke-width:1.06px;}.cls-2{fill:#3a4468;}.cls-3{fill:#d4a486;}.cls-4{fill:#fff;}.cls-5{stroke:#000;stroke-width:0.84px;}.cls-12,.cls-15,.cls-17,.cls-5{stroke-linecap:round;stroke-linejoin:round;}.cls-6{fill:#1c2123;}.cls-7{fill:#e7bb9e;}.cls-8{fill:#2e353a;}.cls-11,.cls-9{stroke-width:0.79px;}.cls-10{fill:#e4ad56;}.cls-11{stroke:#d2933e;}.cls-12{stroke:#c98f7e;stroke-width:0.52px;}.cls-13{fill:#cd937e;}.cls-14{fill:#1f2326;}.cls-15{stroke:#322b29;stroke-width:0.53px;}.cls-16,.cls-17{stroke:#ded5cd;}</style></defs><g id="Layer_2" data-name="Layer 2"><g id="OBJECTS"><line class="cls-1" x1="110.69" y1="98.98" x2="139.13" y2="152.88"/><line class="cls-1" x1="137.27" y1="98.98" x2="110.07" y2="152.88"/><rect class="cls-2" x="107.19" y="96.62" width="34.12" height="4.71"/><polygon class="cls-3" points="82.3 121.45 85.5 140.99 94.72 140.6 93.27 120.82 82.3 121.45"/><path class="cls-4" d="M84.78,138.82,68.37,146.3A2.59,2.59,0,0,0,67,149.21H95.94L94.87,138.7Z"/><rect x="66.64" y="149.21" width="29.81" height="3.11"/><path class="cls-5" d="M92.51,143.58A2.56,2.56,0,1,1,90,141,2.57,2.57,0,0,1,92.51,143.58Z"/><line class="cls-5" x1="79.24" y1="140.19" x2="81.5" y2="142.2"/><line class="cls-5" x1="77.12" y1="141.22" x2="79.4" y2="143.24"/><line class="cls-5" x1="74.88" y1="142.37" x2="77.26" y2="144.48"/><path class="cls-6" d="M74.06,92.26l5.86,39.88,18,.24L92,78.73H86.19A12.2,12.2,0,0,0,74.06,92.26Z"/><polygon class="cls-7" points="104.62 117.64 119.63 131.37 126.44 125.14 112.62 110.09 104.62 117.64"/><path class="cls-4" d="M117.68,130.17l-7.75,16.28a2.6,2.6,0,0,0,.83,3.11h0L132.92,131l-7.59-7.36Z"/><rect x="107.99" y="139.84" width="29.81" height="3.11" transform="translate(-62.15 112.12) rotate(-40.02)"/><path class="cls-5" d="M126.67,128.85a2.56,2.56,0,1,1-3.6-.37A2.57,2.57,0,0,1,126.67,128.85Z"/><line class="cls-5" x1="114.33" y1="134.79" x2="117.35" y2="134.87"/><line class="cls-5" x1="113.36" y1="136.93" x2="116.41" y2="137.01"/><line class="cls-5" x1="112.39" y1="139.25" x2="115.57" y2="139.34"/><path class="cls-8" d="M141.68,78.37,90.4,79s-11.23.5-11,11.41a16,16,0,0,0,3.26,9.16l25.39,28.57,14.62-10.43L103.34,97l26-.12C140,96.78,143.8,87,141.68,76.44Z"/><line class="cls-9" x1="103.34" y1="96.96" x2="97.81" y2="94.16"/><polygon class="cls-3" points="104.11 62.01 82.67 66.16 83.53 71.57 110.42 72.53 116.55 60.98 104.11 62.01"/><path class="cls-3" d="M104,48.75,101,64s10.92,7.81,10.7,7.16S114,48.75,114,48.75Z"/><path class="cls-10" d="M114,34.13s-8.42,1.2-10.15,7.66c-2.25,8.42-3.1,9.63-3.1,9.63l11.44,1.67Z"/><path class="cls-10" d="M110.38,43.84,109,73.34h30.78l1.48-35.74c0-2.87-3.41-5.19-6.29-5.07l-7.2.3L114,34.13Z"/><line class="cls-11" x1="109.97" y1="52.76" x2="110.66" y2="43.64"/><path class="cls-10" d="M128.86,32.83s11.4-1.84,14.33,1.65c3.7,4.4,6.36,11.91,6.36,11.91l-12.36,3.93Z"/><polyline class="cls-11" points="137.19 50.32 135.02 51.09 131.65 42.61"/><polygon class="cls-7" points="137.19 50.32 144.52 66.75 154.33 58.22 149.55 46.39 137.19 50.32"/><path class="cls-7" d="M143.42,64,120.27,69l.93,4.39,27.16.7s13.15-2.92,6-15.82Z"/><path class="cls-7" d="M120.27,69S109,64.52,105.86,71.3l.2,2.74,18.19.86Z"/><line class="cls-12" x1="143.42" y1="64.01" x2="148.9" y2="63.25"/><path class="cls-13" d="M113.82,19a3.27,3.27,0,0,1-2.66,3.77A3.24,3.24,0,0,1,107.5,20a3.2,3.2,0,1,1,6.32-1Z"/><path class="cls-7" d="M116.2,26.62l.68,7.86c.23,2.77,2,4.1,4.64,3.84h0c2.25-.21,4.62-1.52,4.31-3.94l-1.64-12.33Z"/><path class="cls-14" d="M116.63,31.85s6.46,0,7.83-7.4c.43-2.33-8.34,1.36-8.34,1.36Z"/><path class="cls-7" d="M118.76,28.7h0c-4.49.4-8.52-2.94-9-6.71l-.92-7.91A8.75,8.75,0,0,1,116,4.29h0c4.67-.74,9.88,2.45,10.62,7.27l.64,6.17A9.91,9.91,0,0,1,118.76,28.7Z"/><polyline class="cls-15" points="114.23 18.2 114.19 20.8 115.31 20.75"/><path class="cls-14" d="M118.6,14s-1.86,0-1.81.77c0,0,0,.53,1.66.49s2-.19,2.13-.69S119.46,14,118.6,14Z"/><path class="cls-14" d="M111.18,14.69s1.5-.29,1.69.43c0,0,.11.48-1.21.71s-1.77.08-1.93-.3S110.46,14.77,111.18,14.69Z"/><path class="cls-14" d="M112.54,17.82a.78.78,0,1,1-.87-.7A.79.79,0,0,1,112.54,17.82Z"/><path class="cls-14" d="M119.29,17a.78.78,0,1,1-1.54.18.78.78,0,0,1,.67-.88A.79.79,0,0,1,119.29,17Z"/><path class="cls-15" d="M114,22.56a4.46,4.46,0,0,0,3.84-.14"/><path class="cls-8" d="M109.84.84c1.67-.86,6-2,7.25,1.85,4.35-.63,11.32-1,12.28,2.73,1.4,5.51-2.18,11.3-2.18,11.3l-1.08.64s-2.93-1.28-2.65-8c0,0-9.95,3.12-14.86.88S104.81,3.42,109.84.84Z"/><path class="cls-7" d="M131.4,17.22A3.25,3.25,0,0,1,128.76,21a3.21,3.21,0,0,1-3.63-2.74,3.24,3.24,0,0,1,2.64-3.73A3.2,3.2,0,0,1,131.4,17.22Z"/><path class="cls-15" d="M127.32,18.66s-.36-2.35,1.86-2.32"/><path class="cls-7" d="M129.59,32.72,114,34.13s.55,5.26,7,5C128.6,38.78,129.59,32.72,129.59,32.72Z"/><line class="cls-1" x1="175.08" y1="77.68" x2="158.66" y2="152.88"/><line class="cls-1" x1="173.84" y1="77.68" x2="190.26" y2="152.88"/><line class="cls-1" x1="42.26" y1="77.68" x2="25.84" y2="152.88"/><line class="cls-1" x1="41.02" y1="77.68" x2="57.44" y2="152.88"/><rect class="cls-4" x="19.39" y="73.6" width="185.58" height="8.16"/><path class="cls-8" d="M182.67,60.49s2,12.43-7.34,12.88-7.16-13-7.16-13Z"/><path class="cls-8" d="M167.15,70.62a4.43,4.43,0,1,1,4.3-4.56A4.44,4.44,0,0,1,167.15,70.62Zm-.22-7.45A3,3,0,1,0,170,66.1,3,3,0,0,0,166.93,63.17Z"/><line class="cls-16" y1="152.88" x2="216.2" y2="152.88"/><path class="cls-6" d="M118.8,73.6H96.29V71.07H118.8a1.26,1.26,0,0,1,1.26,1.27h0A1.25,1.25,0,0,1,118.8,73.6Z"/><path class="cls-8" d="M99.25,73.6H66.93a3.82,3.82,0,0,1-3.68-2.8L57.43,49.91a2.91,2.91,0,0,1,2.8-3.68H90.11a2.52,2.52,0,0,1,2.44,1.89Z"/><circle class="cls-4" cx="77.02" cy="61.09" r="2.82"/><rect class="cls-4" x="30.49" y="12.97" width="44.07" height="15.55" rx="1.85"/><path class="cls-4" d="M57.7,26.37l2.58,5a.9.9,0,0,0,1.57.06l3.09-5.08Z"/><line class="cls-17" x1="36.21" y1="18.57" x2="68.85" y2="18.57"/><line class="cls-17" x1="36.21" y1="22.91" x2="53.3" y2="22.91"/></g></g></svg>